<svg width="1440" height="832" viewBox="0 0 1440 832" fill="none" xmlns="http://www.w3.org/2000/svg">
<path d="M0 352C65.5044 352 65.5044 384 130.984 384C196.489 384 196.489 352 261.993 352C327.498 352 327.498 384 393.002 384C458.507 384 458.507 352 523.987 352C589.491 352 589.491 384 654.996 384C720.5 384 720.5 352 785.98 352C851.484 352 851.484 384 916.964 384C982.469 384 982.469 352 1047.97 352C1113.48 352 1113.48 384 1178.98 384C1244.49 384 1244.49 352 1309.99 352C1375.5 352 1375.5 384 1441 384" stroke="white" stroke-width="10" stroke-miterlimit="10"/>
<path d="M0 386C65.5044 386 65.5044 417.909 130.984 417.909C196.489 417.909 196.489 386 261.993 386C327.498 386 327.498 417.909 393.002 417.909C458.507 417.909 458.507 386 523.987 386C589.491 386 589.491 417.909 654.995 417.909C720.5 417.909 720.5 386 785.98 386C851.484 386 851.484 417.909 916.964 417.909C982.469 417.909 982.469 386 1047.97 386C1113.48 386 1113.48 417.909 1178.98 417.909C1244.49 417.909 1244.49 386 1309.99 386C1375.5 386 1375.5 417.909 1441 417.909V832H0V386Z" fill="white"/>
<path fill-rule="evenodd" clip-rule="evenodd" d="M940 185H1275C1270.29 140.037 1232.49 105 1186.56 105C1169.62 105 1153.79 109.766 1140.31 118.039C1132.01 93.0287 1108.56 75 1080.91 75C1049.73 75 1023.88 97.9399 1019.1 127.964C1014.08 126.681 1008.82 126 1003.41 126C969.954 126 942.535 151.991 940 185Z" fill="white"/>
<path fill-rule="evenodd" clip-rule="evenodd" d="M932 127H642.513C642.174 124.047 642 121.044 642 118C642 74.9218 676.899 40 719.949 40C738.342 40 755.247 46.3745 768.578 57.0362C776.851 52.5485 786.328 50 796.399 50C816.03 50 833.401 59.6817 844.003 74.5337C850.006 72.8821 856.328 72 862.856 72C896.544 72 924.749 95.4932 932 127Z" fill="white"/>
<rect x="184" y="168" width="365" height="45" fill="white"/>
<rect x="184" y="218" width="405" height="45" fill="white"/>
<path d="M690 288H165L188.11 327H652.321L690 288Z" fill="white"/>
<rect x="194" y="178" width="25" height="25" fill="#1C39FF"/>
<rect x="274" y="178" width="25" height="25" fill="#1C39FF"/>
<rect x="354" y="178" width="25" height="25" fill="#1C39FF"/>
<rect x="434" y="178" width="25" height="25" fill="#1C39FF"/>
<rect x="514" y="178" width="25" height="25" fill="#1C39FF"/>
<rect x="234" y="178" width="25" height="25" fill="#1C39FF"/>
<rect x="314" y="178" width="25" height="25" fill="#1C39FF"/>
<rect x="394" y="178" width="25" height="25" fill="#1C39FF"/>
<rect x="474" y="178" width="25" height="25" fill="#1C39FF"/>
<rect x="194" y="228" width="25" height="25" fill="#1C39FF"/>
<rect x="274" y="228" width="25" height="25" fill="#1C39FF"/>
<rect x="354" y="228" width="25" height="25" fill="#1C39FF"/>
<rect x="434" y="228" width="25" height="25" fill="#1C39FF"/>
<rect x="514" y="228" width="25" height="25" fill="#1C39FF"/>
<rect x="554" y="228" width="25" height="25" fill="#1C39FF"/>
<rect x="234" y="228" width="25" height="25" fill="#1C39FF"/>
<rect x="314" y="228" width="25" height="25" fill="#1C39FF"/>
<rect x="394" y="228" width="25" height="25" fill="#1C39FF"/>
<rect x="474" y="228" width="25" height="25" fill="#1C39FF"/>
<path d="M270.91 133H361.09L371 163H261L270.91 133Z" fill="white"/>
<path d="M165 268H690V283H165V268Z" fill="#FED700"/>
</svg>
