<svg width="1440" height="380" viewBox="0 0 1440 380" fill="none" xmlns="http://www.w3.org/2000/svg">
<path fill-rule="evenodd" clip-rule="evenodd" d="M0 0H1440V380H1275V215.5C1275 171.041 1238.96 135 1194.5 135C1150.04 135 1114 171.041 1114 215.5V380H1085V215.5C1085 171.041 1048.96 135 1004.5 135C960.041 135 924 171.041 924 215.5V380H895V215C895 170.817 859.183 135 815 135C770.817 135 735 170.817 735 215V380H705V215C705 170.817 669.183 135 625 135C580.817 135 545 170.817 545 215V380H516V215.5C516 171.041 479.959 135 435.5 135C391.041 135 355 171.041 355 215.5V380H326V215.5C326 171.041 289.959 135 245.5 135C201.041 135 165 171.041 165 215.5V380H0V0Z" fill="white"/>
</svg>
