<svg width="157" height="228" viewBox="0 0 157 228" fill="none" xmlns="http://www.w3.org/2000/svg">
<path d="M78.5 227.6C58.9 227.6 42.9 220.2 30.5 205.4V224H0.500002V0.499981H30.5V74.6C43.5 59.8 59.5 52.4 78.5 52.4C100.1 52.4 118.5 61.3 133.7 79.1C148.9 96.9 156.5 117.2 156.5 140C156.5 162.8 148.9 183.1 133.7 200.9C118.5 218.7 100.1 227.6 78.5 227.6ZM112.4 99.8C103.2 87.4 91.9 81.2 78.5 81.2C65.1 81.2 53.7 87.4 44.3 99.8C35.1 112 30.5 125.4 30.5 140C30.5 154.6 35.1 168.1 44.3 180.5C53.7 192.7 65.1 198.8 78.5 198.8C91.9 198.8 103.2 192.7 112.4 180.5C121.8 168.1 126.5 154.6 126.5 140C126.5 125.4 121.8 112 112.4 99.8Z" fill="#0344A5"/>
</svg>
