<svg width="538" height="534" viewBox="0 0 538 534" fill="none" xmlns="http://www.w3.org/2000/svg">
<mask id="path-1-inside-1_232_1837" fill="white">
<path d="M524.661 268.555C524.661 408.525 411.193 521.993 271.223 521.993C131.253 521.993 17.7852 408.525 17.7852 268.555C17.7852 128.585 131.253 15.1174 271.223 15.1174C411.193 15.1174 524.661 128.585 524.661 268.555ZM143.088 268.555C143.088 339.322 200.456 396.69 271.223 396.69C341.99 396.69 399.358 339.322 399.358 268.555C399.358 197.789 341.99 140.421 271.223 140.421C200.456 140.421 143.088 197.789 143.088 268.555Z"/>
</mask>
<path d="M524.661 268.555C524.661 408.525 411.193 521.993 271.223 521.993C131.253 521.993 17.7852 408.525 17.7852 268.555C17.7852 128.585 131.253 15.1174 271.223 15.1174C411.193 15.1174 524.661 128.585 524.661 268.555ZM143.088 268.555C143.088 339.322 200.456 396.69 271.223 396.69C341.99 396.69 399.358 339.322 399.358 268.555C399.358 197.789 341.99 140.421 271.223 140.421C200.456 140.421 143.088 197.789 143.088 268.555Z" stroke="white" stroke-width="12" mask="url(#path-1-inside-1_232_1837)"/>
<path d="M523.772 268.555C523.772 301.837 517.216 334.793 504.48 365.542C491.743 396.29 473.075 424.229 449.541 447.763C426.007 471.297 398.069 489.965 367.32 502.702C336.572 515.438 303.615 521.993 270.334 521.993L270.334 396.69C287.16 396.69 303.823 393.376 319.369 386.937C334.915 380.497 349.04 371.059 360.939 359.16C372.837 347.262 382.275 333.137 388.715 317.591C395.154 302.044 398.468 285.382 398.468 268.555H523.772Z" fill="white"/>
<path d="M16.8954 268.555C16.8954 235.273 23.4508 202.317 36.1872 171.569C48.9237 140.82 67.5918 112.881 91.1257 89.3474C114.66 65.8135 142.598 47.1454 173.347 34.409C204.095 21.6725 237.051 15.1172 270.333 15.1171L270.333 140.42C253.507 140.42 236.844 143.735 221.298 150.174C205.752 156.613 191.627 166.052 179.728 177.95C167.83 189.849 158.392 203.974 151.952 219.52C145.513 235.066 142.199 251.728 142.199 268.555L16.8954 268.555Z" fill="white"/>
<rect x="263.552" y="3" width="14.4529" height="146.063" rx="7.22645" fill="white" stroke="white" stroke-width="6"/>
<rect x="535" y="251.103" width="14.4529" height="146.063" rx="7.22645" transform="rotate(90 535 251.103)" fill="white" stroke="white" stroke-width="6"/>
<rect x="149.062" y="251.992" width="14.4529" height="146.063" rx="7.22645" transform="rotate(90 149.062 251.992)" fill="white" stroke="white" stroke-width="6"/>
<rect x="278.005" y="530.554" width="14.4529" height="146.063" rx="7.22645" transform="rotate(-180 278.005 530.554)" fill="white" stroke="white" stroke-width="6"/>
</svg>
