<svg width="395" height="227" viewBox="0 0 395 227" fill="none" xmlns="http://www.w3.org/2000/svg">
<path fill-rule="evenodd" clip-rule="evenodd" d="M14.2487 99.2198L22.5314 144.51C23.0011 147.47 25.0009 149.981 27.9436 150.971L97.6396 174.421C100.582 175.411 103.694 174.619 105.857 172.545L161.145 121.98C162.498 121.034 163.491 119.617 164.047 117.966C164.603 116.314 164.667 114.585 164.162 113.014L150.683 39.3119C150.213 36.3522 148.213 33.8407 145.271 32.8506L75.5748 9.40146C72.632 8.41139 69.5208 9.20324 67.3576 11.2771L33.3826 42.3498L69.4276 54.4772C78.972 49.9164 89.8641 49.2303 99.838 52.586C110.107 56.0411 118.562 63.4978 123.342 73.3158C128.122 83.1337 128.836 94.5087 125.327 104.938C121.818 115.368 114.373 123.998 104.631 128.93C94.888 133.861 83.6455 134.691 73.3763 131.236C63.4023 127.88 55.1401 120.75 50.2937 111.347L14.2487 99.2198Z" fill="white"/>
<rect x="142.782" y="83.9995" width="269.373" height="50.4411" transform="rotate(20.6422 142.782 83.9995)" fill="white"/>
</svg>
