<svg width="189" height="189" viewBox="0 0 189 189" fill="none" xmlns="http://www.w3.org/2000/svg">
<path d="M6.51724 0H0V6.51724H6.51724V0Z" fill="#1C39FF"/>
<path d="M6.51724 6.51733H0V13.0346H6.51724V6.51733Z" fill="#1C39FF"/>
<path d="M6.51724 13.0344H0V19.5517H6.51724V13.0344Z" fill="#1C39FF"/>
<path d="M6.51724 19.5518H0V26.069H6.51724V19.5518Z" fill="#1C39FF"/>
<path d="M6.51724 26.0688H0V32.5861H6.51724V26.0688Z" fill="#1C39FF"/>
<path d="M6.51724 32.5862H0V39.1034H6.51724V32.5862Z" fill="#1C39FF"/>
<path d="M6.51724 39.1035H0V45.6208H6.51724V39.1035Z" fill="#1C39FF"/>
<path d="M6.51724 52.1379H0V58.6552H6.51724V52.1379Z" fill="#1C39FF"/>
<path d="M6.51724 58.6553H0V65.1725H6.51724V58.6553Z" fill="#1C39FF"/>
<path d="M6.51724 65.1724H0V71.6896H6.51724V65.1724Z" fill="#1C39FF"/>
<path d="M6.51724 84.7241H0V91.2414H6.51724V84.7241Z" fill="#1C39FF"/>
<path d="M6.51724 97.7585H0V104.276H6.51724V97.7585Z" fill="#1C39FF"/>
<path d="M6.51724 143.379H0V149.897H6.51724V143.379Z" fill="#1C39FF"/>
<path d="M6.51724 149.896H0V156.414H6.51724V149.896Z" fill="#1C39FF"/>
<path d="M6.51724 156.414H0V162.931H6.51724V156.414Z" fill="#1C39FF"/>
<path d="M6.51724 162.931H0V169.448H6.51724V162.931Z" fill="#1C39FF"/>
<path d="M6.51724 169.448H0V175.965H6.51724V169.448Z" fill="#1C39FF"/>
<path d="M6.51724 175.966H0V182.483H6.51724V175.966Z" fill="#1C39FF"/>
<path d="M6.51724 182.483H0V189H6.51724V182.483Z" fill="#1C39FF"/>
<path d="M13.0348 0H6.51758V6.51724H13.0348V0Z" fill="#1C39FF"/>
<path d="M13.0348 39.1035H6.51758V45.6208H13.0348V39.1035Z" fill="#1C39FF"/>
<path d="M13.0348 52.1379H6.51758V58.6552H13.0348V52.1379Z" fill="#1C39FF"/>
<path d="M13.0348 65.1724H6.51758V71.6896H13.0348V65.1724Z" fill="#1C39FF"/>
<path d="M13.0348 84.7241H6.51758V91.2414H13.0348V84.7241Z" fill="#1C39FF"/>
<path d="M13.0348 91.2415H6.51758V97.7587H13.0348V91.2415Z" fill="#1C39FF"/>
<path d="M13.0348 104.276H6.51758V110.793H13.0348V104.276Z" fill="#1C39FF"/>
<path d="M13.0348 110.793H6.51758V117.31H13.0348V110.793Z" fill="#1C39FF"/>
<path d="M13.0348 143.379H6.51758V149.897H13.0348V143.379Z" fill="#1C39FF"/>
<path d="M13.0348 182.483H6.51758V189H13.0348V182.483Z" fill="#1C39FF"/>
<path d="M19.5514 0H13.0342V6.51724H19.5514V0Z" fill="#1C39FF"/>
<path d="M19.5514 13.0344H13.0342V19.5517H19.5514V13.0344Z" fill="#1C39FF"/>
<path d="M19.5514 19.5518H13.0342V26.069H19.5514V19.5518Z" fill="#1C39FF"/>
<path d="M19.5514 26.0688H13.0342V32.5861H19.5514V26.0688Z" fill="#1C39FF"/>
<path d="M19.5514 39.1035H13.0342V45.6208H19.5514V39.1035Z" fill="#1C39FF"/>
<path d="M19.5514 58.6553H13.0342V65.1725H19.5514V58.6553Z" fill="#1C39FF"/>
<path d="M19.5514 84.7241H13.0342V91.2414H19.5514V84.7241Z" fill="#1C39FF"/>
<path d="M19.5514 91.2415H13.0342V97.7587H19.5514V91.2415Z" fill="#1C39FF"/>
<path d="M19.5514 97.7585H13.0342V104.276H19.5514V97.7585Z" fill="#1C39FF"/>
<path d="M19.5514 110.793H13.0342V117.31H19.5514V110.793Z" fill="#1C39FF"/>
<path d="M19.5514 130.345H13.0342V136.862H19.5514V130.345Z" fill="#1C39FF"/>
<path d="M19.5514 143.379H13.0342V149.897H19.5514V143.379Z" fill="#1C39FF"/>
<path d="M19.5514 156.414H13.0342V162.931H19.5514V156.414Z" fill="#1C39FF"/>
<path d="M19.5514 162.931H13.0342V169.448H19.5514V162.931Z" fill="#1C39FF"/>
<path d="M19.5514 169.448H13.0342V175.965H19.5514V169.448Z" fill="#1C39FF"/>
<path d="M19.5514 182.483H13.0342V189H19.5514V182.483Z" fill="#1C39FF"/>
<path d="M26.069 0H19.5518V6.51724H26.069V0Z" fill="#1C39FF"/>
<path d="M26.069 13.0344H19.5518V19.5517H26.069V13.0344Z" fill="#1C39FF"/>
<path d="M26.069 19.5518H19.5518V26.069H26.069V19.5518Z" fill="#1C39FF"/>
<path d="M26.069 26.0688H19.5518V32.5861H26.069V26.0688Z" fill="#1C39FF"/>
<path d="M26.069 39.1035H19.5518V45.6208H26.069V39.1035Z" fill="#1C39FF"/>
<path d="M26.069 52.1379H19.5518V58.6552H26.069V52.1379Z" fill="#1C39FF"/>
<path d="M26.069 78.2068H19.5518V84.724H26.069V78.2068Z" fill="#1C39FF"/>
<path d="M26.069 84.7241H19.5518V91.2414H26.069V84.7241Z" fill="#1C39FF"/>
<path d="M26.069 91.2415H19.5518V97.7587H26.069V91.2415Z" fill="#1C39FF"/>
<path d="M26.069 97.7585H19.5518V104.276H26.069V97.7585Z" fill="#1C39FF"/>
<path d="M26.069 123.828H19.5518V130.345H26.069V123.828Z" fill="#1C39FF"/>
<path d="M26.069 130.345H19.5518V136.862H26.069V130.345Z" fill="#1C39FF"/>
<path d="M26.069 143.379H19.5518V149.897H26.069V143.379Z" fill="#1C39FF"/>
<path d="M26.069 156.414H19.5518V162.931H26.069V156.414Z" fill="#1C39FF"/>
<path d="M26.069 162.931H19.5518V169.448H26.069V162.931Z" fill="#1C39FF"/>
<path d="M26.069 169.448H19.5518V175.965H26.069V169.448Z" fill="#1C39FF"/>
<path d="M26.069 182.483H19.5518V189H26.069V182.483Z" fill="#1C39FF"/>
<path d="M32.5866 0H26.0693V6.51724H32.5866V0Z" fill="#1C39FF"/>
<path d="M32.5866 13.0344H26.0693V19.5517H32.5866V13.0344Z" fill="#1C39FF"/>
<path d="M32.5866 19.5518H26.0693V26.069H32.5866V19.5518Z" fill="#1C39FF"/>
<path d="M32.5866 26.0688H26.0693V32.5861H32.5866V26.0688Z" fill="#1C39FF"/>
<path d="M32.5866 39.1035H26.0693V45.6208H32.5866V39.1035Z" fill="#1C39FF"/>
<path d="M32.5866 52.1379H26.0693V58.6552H32.5866V52.1379Z" fill="#1C39FF"/>
<path d="M32.5866 65.1724H26.0693V71.6896H32.5866V65.1724Z" fill="#1C39FF"/>
<path d="M32.5866 84.7241H26.0693V91.2414H32.5866V84.7241Z" fill="#1C39FF"/>
<path d="M32.5866 91.2415H26.0693V97.7587H32.5866V91.2415Z" fill="#1C39FF"/>
<path d="M32.5866 110.793H26.0693V117.31H32.5866V110.793Z" fill="#1C39FF"/>
<path d="M32.5866 123.828H26.0693V130.345H32.5866V123.828Z" fill="#1C39FF"/>
<path d="M32.5866 143.379H26.0693V149.897H32.5866V143.379Z" fill="#1C39FF"/>
<path d="M32.5866 156.414H26.0693V162.931H32.5866V156.414Z" fill="#1C39FF"/>
<path d="M32.5866 162.931H26.0693V169.448H32.5866V162.931Z" fill="#1C39FF"/>
<path d="M32.5866 169.448H26.0693V175.965H32.5866V169.448Z" fill="#1C39FF"/>
<path d="M32.5866 182.483H26.0693V189H32.5866V182.483Z" fill="#1C39FF"/>
<path d="M39.1032 0H32.5859V6.51724H39.1032V0Z" fill="#1C39FF"/>
<path d="M39.1032 39.1035H32.5859V45.6208H39.1032V39.1035Z" fill="#1C39FF"/>
<path d="M39.1032 58.6553H32.5859V65.1725H39.1032V58.6553Z" fill="#1C39FF"/>
<path d="M39.1032 65.1724H32.5859V71.6896H39.1032V65.1724Z" fill="#1C39FF"/>
<path d="M39.1032 78.2068H32.5859V84.724H39.1032V78.2068Z" fill="#1C39FF"/>
<path d="M39.1032 84.7241H32.5859V91.2414H39.1032V84.7241Z" fill="#1C39FF"/>
<path d="M39.1032 143.379H32.5859V149.897H39.1032V143.379Z" fill="#1C39FF"/>
<path d="M39.1032 182.483H32.5859V189H39.1032V182.483Z" fill="#1C39FF"/>
<path d="M45.6208 0H39.1035V6.51724H45.6208V0Z" fill="#1C39FF"/>
<path d="M45.6208 6.51733H39.1035V13.0346H45.6208V6.51733Z" fill="#1C39FF"/>
<path d="M45.6208 13.0344H39.1035V19.5517H45.6208V13.0344Z" fill="#1C39FF"/>
<path d="M45.6208 19.5518H39.1035V26.069H45.6208V19.5518Z" fill="#1C39FF"/>
<path d="M45.6208 26.0688H39.1035V32.5861H45.6208V26.0688Z" fill="#1C39FF"/>
<path d="M45.6208 32.5862H39.1035V39.1034H45.6208V32.5862Z" fill="#1C39FF"/>
<path d="M45.6208 39.1035H39.1035V45.6208H45.6208V39.1035Z" fill="#1C39FF"/>
<path d="M45.6208 52.1379H39.1035V58.6552H45.6208V52.1379Z" fill="#1C39FF"/>
<path d="M45.6208 65.1724H39.1035V71.6896H45.6208V65.1724Z" fill="#1C39FF"/>
<path d="M45.6208 78.2068H39.1035V84.724H45.6208V78.2068Z" fill="#1C39FF"/>
<path d="M45.6208 91.2415H39.1035V97.7587H45.6208V91.2415Z" fill="#1C39FF"/>
<path d="M45.6208 104.276H39.1035V110.793H45.6208V104.276Z" fill="#1C39FF"/>
<path d="M45.6208 117.31H39.1035V123.828H45.6208V117.31Z" fill="#1C39FF"/>
<path d="M45.6208 130.345H39.1035V136.862H45.6208V130.345Z" fill="#1C39FF"/>
<path d="M45.6208 143.379H39.1035V149.897H45.6208V143.379Z" fill="#1C39FF"/>
<path d="M45.6208 149.896H39.1035V156.414H45.6208V149.896Z" fill="#1C39FF"/>
<path d="M45.6208 156.414H39.1035V162.931H45.6208V156.414Z" fill="#1C39FF"/>
<path d="M45.6208 162.931H39.1035V169.448H45.6208V162.931Z" fill="#1C39FF"/>
<path d="M45.6208 169.448H39.1035V175.965H45.6208V169.448Z" fill="#1C39FF"/>
<path d="M45.6208 175.966H39.1035V182.483H45.6208V175.966Z" fill="#1C39FF"/>
<path d="M45.6208 182.483H39.1035V189H45.6208V182.483Z" fill="#1C39FF"/>
<path d="M52.1383 58.6553H45.6211V65.1725H52.1383V58.6553Z" fill="#1C39FF"/>
<path d="M52.1383 65.1724H45.6211V71.6896H52.1383V65.1724Z" fill="#1C39FF"/>
<path d="M52.1383 71.6897H45.6211V78.2069H52.1383V71.6897Z" fill="#1C39FF"/>
<path d="M52.1383 78.2068H45.6211V84.724H52.1383V78.2068Z" fill="#1C39FF"/>
<path d="M52.1383 97.7585H45.6211V104.276H52.1383V97.7585Z" fill="#1C39FF"/>
<path d="M52.1383 104.276H45.6211V110.793H52.1383V104.276Z" fill="#1C39FF"/>
<path d="M52.1383 110.793H45.6211V117.31H52.1383V110.793Z" fill="#1C39FF"/>
<path d="M52.1383 117.31H45.6211V123.828H52.1383V117.31Z" fill="#1C39FF"/>
<path d="M52.1383 130.345H45.6211V136.862H52.1383V130.345Z" fill="#1C39FF"/>
<path d="M58.6549 0H52.1377V6.51724H58.6549V0Z" fill="#1C39FF"/>
<path d="M58.6549 39.1035H52.1377V45.6208H58.6549V39.1035Z" fill="#1C39FF"/>
<path d="M58.6549 45.6206H52.1377V52.1378H58.6549V45.6206Z" fill="#1C39FF"/>
<path d="M58.6549 91.2415H52.1377V97.7587H58.6549V91.2415Z" fill="#1C39FF"/>
<path d="M58.6549 97.7585H52.1377V104.276H58.6549V97.7585Z" fill="#1C39FF"/>
<path d="M58.6549 104.276H52.1377V110.793H58.6549V104.276Z" fill="#1C39FF"/>
<path d="M58.6549 110.793H52.1377V117.31H58.6549V110.793Z" fill="#1C39FF"/>
<path d="M58.6549 130.345H52.1377V136.862H58.6549V130.345Z" fill="#1C39FF"/>
<path d="M58.6549 136.862H52.1377V143.379H58.6549V136.862Z" fill="#1C39FF"/>
<path d="M58.6549 156.414H52.1377V162.931H58.6549V156.414Z" fill="#1C39FF"/>
<path d="M58.6549 162.931H52.1377V169.448H58.6549V162.931Z" fill="#1C39FF"/>
<path d="M58.6549 175.966H52.1377V182.483H58.6549V175.966Z" fill="#1C39FF"/>
<path d="M58.6549 182.483H52.1377V189H58.6549V182.483Z" fill="#1C39FF"/>
<path d="M65.1725 0H58.6553V6.51724H65.1725V0Z" fill="#1C39FF"/>
<path d="M65.1725 13.0344H58.6553V19.5517H65.1725V13.0344Z" fill="#1C39FF"/>
<path d="M65.1725 32.5862H58.6553V39.1034H65.1725V32.5862Z" fill="#1C39FF"/>
<path d="M65.1725 45.6206H58.6553V52.1378H65.1725V45.6206Z" fill="#1C39FF"/>
<path d="M65.1725 52.1379H58.6553V58.6552H65.1725V52.1379Z" fill="#1C39FF"/>
<path d="M65.1725 65.1724H58.6553V71.6896H65.1725V65.1724Z" fill="#1C39FF"/>
<path d="M65.1725 78.2068H58.6553V84.724H65.1725V78.2068Z" fill="#1C39FF"/>
<path d="M65.1725 104.276H58.6553V110.793H65.1725V104.276Z" fill="#1C39FF"/>
<path d="M65.1725 110.793H58.6553V117.31H65.1725V110.793Z" fill="#1C39FF"/>
<path d="M65.1725 117.31H58.6553V123.828H65.1725V117.31Z" fill="#1C39FF"/>
<path d="M65.1725 130.345H58.6553V136.862H65.1725V130.345Z" fill="#1C39FF"/>
<path d="M65.1725 136.862H58.6553V143.379H65.1725V136.862Z" fill="#1C39FF"/>
<path d="M65.1725 143.379H58.6553V149.897H65.1725V143.379Z" fill="#1C39FF"/>
<path d="M65.1725 162.931H58.6553V169.448H65.1725V162.931Z" fill="#1C39FF"/>
<path d="M65.1725 175.966H58.6553V182.483H65.1725V175.966Z" fill="#1C39FF"/>
<path d="M71.6901 0H65.1729V6.51724H71.6901V0Z" fill="#1C39FF"/>
<path d="M71.6901 19.5518H65.1729V26.069H71.6901V19.5518Z" fill="#1C39FF"/>
<path d="M71.6901 26.0688H65.1729V32.5861H71.6901V26.0688Z" fill="#1C39FF"/>
<path d="M71.6901 39.1035H65.1729V45.6208H71.6901V39.1035Z" fill="#1C39FF"/>
<path d="M71.6901 58.6553H65.1729V65.1725H71.6901V58.6553Z" fill="#1C39FF"/>
<path d="M71.6901 78.2068H65.1729V84.724H71.6901V78.2068Z" fill="#1C39FF"/>
<path d="M71.6901 84.7241H65.1729V91.2414H71.6901V84.7241Z" fill="#1C39FF"/>
<path d="M71.6901 91.2415H65.1729V97.7587H71.6901V91.2415Z" fill="#1C39FF"/>
<path d="M71.6901 104.276H65.1729V110.793H71.6901V104.276Z" fill="#1C39FF"/>
<path d="M71.6901 110.793H65.1729V117.31H71.6901V110.793Z" fill="#1C39FF"/>
<path d="M71.6901 123.828H65.1729V130.345H71.6901V123.828Z" fill="#1C39FF"/>
<path d="M71.6901 130.345H65.1729V136.862H71.6901V130.345Z" fill="#1C39FF"/>
<path d="M71.6901 136.862H65.1729V143.379H71.6901V136.862Z" fill="#1C39FF"/>
<path d="M71.6901 156.414H65.1729V162.931H71.6901V156.414Z" fill="#1C39FF"/>
<path d="M71.6901 175.966H65.1729V182.483H71.6901V175.966Z" fill="#1C39FF"/>
<path d="M78.2067 0H71.6895V6.51724H78.2067V0Z" fill="#1C39FF"/>
<path d="M78.2067 6.51733H71.6895V13.0346H78.2067V6.51733Z" fill="#1C39FF"/>
<path d="M78.2067 13.0344H71.6895V19.5517H78.2067V13.0344Z" fill="#1C39FF"/>
<path d="M78.2067 19.5518H71.6895V26.069H78.2067V19.5518Z" fill="#1C39FF"/>
<path d="M78.2067 26.0688H71.6895V32.5861H78.2067V26.0688Z" fill="#1C39FF"/>
<path d="M78.2067 32.5862H71.6895V39.1034H78.2067V32.5862Z" fill="#1C39FF"/>
<path d="M78.2067 104.276H71.6895V110.793H78.2067V104.276Z" fill="#1C39FF"/>
<path d="M78.2067 110.793H71.6895V117.31H78.2067V110.793Z" fill="#1C39FF"/>
<path d="M78.2067 123.828H71.6895V130.345H78.2067V123.828Z" fill="#1C39FF"/>
<path d="M78.2067 130.345H71.6895V136.862H78.2067V130.345Z" fill="#1C39FF"/>
<path d="M78.2067 143.379H71.6895V149.897H78.2067V143.379Z" fill="#1C39FF"/>
<path d="M78.2067 149.896H71.6895V156.414H78.2067V149.896Z" fill="#1C39FF"/>
<path d="M78.2067 156.414H71.6895V162.931H78.2067V156.414Z" fill="#1C39FF"/>
<path d="M78.2067 169.448H71.6895V175.965H78.2067V169.448Z" fill="#1C39FF"/>
<path d="M78.2067 175.966H71.6895V182.483H78.2067V175.966Z" fill="#1C39FF"/>
<path d="M84.7243 6.51733H78.207V13.0346H84.7243V6.51733Z" fill="#1C39FF"/>
<path d="M84.7243 26.0688H78.207V32.5861H84.7243V26.0688Z" fill="#1C39FF"/>
<path d="M84.7243 39.1035H78.207V45.6208H84.7243V39.1035Z" fill="#1C39FF"/>
<path d="M84.7243 45.6206H78.207V52.1378H84.7243V45.6206Z" fill="#1C39FF"/>
<path d="M84.7243 52.1379H78.207V58.6552H84.7243V52.1379Z" fill="#1C39FF"/>
<path d="M84.7243 65.1724H78.207V71.6896H84.7243V65.1724Z" fill="#1C39FF"/>
<path d="M84.7243 84.7241H78.207V91.2414H84.7243V84.7241Z" fill="#1C39FF"/>
<path d="M84.7243 97.7585H78.207V104.276H84.7243V97.7585Z" fill="#1C39FF"/>
<path d="M84.7243 104.276H78.207V110.793H84.7243V104.276Z" fill="#1C39FF"/>
<path d="M84.7243 117.31H78.207V123.828H84.7243V117.31Z" fill="#1C39FF"/>
<path d="M84.7243 136.862H78.207V143.379H84.7243V136.862Z" fill="#1C39FF"/>
<path d="M84.7243 149.896H78.207V156.414H84.7243V149.896Z" fill="#1C39FF"/>
<path d="M84.7243 156.414H78.207V162.931H84.7243V156.414Z" fill="#1C39FF"/>
<path d="M84.7243 169.448H78.207V175.965H84.7243V169.448Z" fill="#1C39FF"/>
<path d="M91.2419 0H84.7246V6.51724H91.2419V0Z" fill="#1C39FF"/>
<path d="M91.2419 6.51733H84.7246V13.0346H91.2419V6.51733Z" fill="#1C39FF"/>
<path d="M91.2419 13.0344H84.7246V19.5517H91.2419V13.0344Z" fill="#1C39FF"/>
<path d="M91.2419 26.0688H84.7246V32.5861H91.2419V26.0688Z" fill="#1C39FF"/>
<path d="M91.2419 32.5862H84.7246V39.1034H91.2419V32.5862Z" fill="#1C39FF"/>
<path d="M91.2419 52.1379H84.7246V58.6552H91.2419V52.1379Z" fill="#1C39FF"/>
<path d="M91.2419 78.2068H84.7246V84.724H91.2419V78.2068Z" fill="#1C39FF"/>
<path d="M91.2419 97.7585H84.7246V104.276H91.2419V97.7585Z" fill="#1C39FF"/>
<path d="M91.2419 117.31H84.7246V123.828H91.2419V117.31Z" fill="#1C39FF"/>
<path d="M91.2419 123.828H84.7246V130.345H91.2419V123.828Z" fill="#1C39FF"/>
<path d="M91.2419 130.345H84.7246V136.862H91.2419V130.345Z" fill="#1C39FF"/>
<path d="M91.2419 136.862H84.7246V143.379H91.2419V136.862Z" fill="#1C39FF"/>
<path d="M91.2419 143.379H84.7246V149.897H91.2419V143.379Z" fill="#1C39FF"/>
<path d="M91.2419 149.896H84.7246V156.414H91.2419V149.896Z" fill="#1C39FF"/>
<path d="M91.2419 156.414H84.7246V162.931H91.2419V156.414Z" fill="#1C39FF"/>
<path d="M91.2419 162.931H84.7246V169.448H91.2419V162.931Z" fill="#1C39FF"/>
<path d="M91.2419 169.448H84.7246V175.965H91.2419V169.448Z" fill="#1C39FF"/>
<path d="M97.7585 0H91.2412V6.51724H97.7585V0Z" fill="#1C39FF"/>
<path d="M97.7585 6.51733H91.2412V13.0346H97.7585V6.51733Z" fill="#1C39FF"/>
<path d="M97.7585 13.0344H91.2412V19.5517H97.7585V13.0344Z" fill="#1C39FF"/>
<path d="M97.7585 19.5518H91.2412V26.069H97.7585V19.5518Z" fill="#1C39FF"/>
<path d="M97.7585 32.5862H91.2412V39.1034H97.7585V32.5862Z" fill="#1C39FF"/>
<path d="M97.7585 39.1035H91.2412V45.6208H97.7585V39.1035Z" fill="#1C39FF"/>
<path d="M97.7585 45.6206H91.2412V52.1378H97.7585V45.6206Z" fill="#1C39FF"/>
<path d="M97.7585 52.1379H91.2412V58.6552H97.7585V52.1379Z" fill="#1C39FF"/>
<path d="M97.7585 58.6553H91.2412V65.1725H97.7585V58.6553Z" fill="#1C39FF"/>
<path d="M97.7585 65.1724H91.2412V71.6896H97.7585V65.1724Z" fill="#1C39FF"/>
<path d="M97.7585 71.6897H91.2412V78.2069H97.7585V71.6897Z" fill="#1C39FF"/>
<path d="M97.7585 78.2068H91.2412V84.724H97.7585V78.2068Z" fill="#1C39FF"/>
<path d="M97.7585 91.2415H91.2412V97.7587H97.7585V91.2415Z" fill="#1C39FF"/>
<path d="M97.7585 97.7585H91.2412V104.276H97.7585V97.7585Z" fill="#1C39FF"/>
<path d="M97.7585 117.31H91.2412V123.828H97.7585V117.31Z" fill="#1C39FF"/>
<path d="M97.7585 162.931H91.2412V169.448H97.7585V162.931Z" fill="#1C39FF"/>
<path d="M97.7585 182.483H91.2412V189H97.7585V182.483Z" fill="#1C39FF"/>
<path d="M104.276 0H97.7588V6.51724H104.276V0Z" fill="#1C39FF"/>
<path d="M104.276 6.51733H97.7588V13.0346H104.276V6.51733Z" fill="#1C39FF"/>
<path d="M104.276 19.5518H97.7588V26.069H104.276V19.5518Z" fill="#1C39FF"/>
<path d="M104.276 26.0688H97.7588V32.5861H104.276V26.0688Z" fill="#1C39FF"/>
<path d="M104.276 52.1379H97.7588V58.6552H104.276V52.1379Z" fill="#1C39FF"/>
<path d="M104.276 71.6897H97.7588V78.2069H104.276V71.6897Z" fill="#1C39FF"/>
<path d="M104.276 91.2415H97.7588V97.7587H104.276V91.2415Z" fill="#1C39FF"/>
<path d="M104.276 97.7585H97.7588V104.276H104.276V97.7585Z" fill="#1C39FF"/>
<path d="M104.276 110.793H97.7588V117.31H104.276V110.793Z" fill="#1C39FF"/>
<path d="M104.276 117.31H97.7588V123.828H104.276V117.31Z" fill="#1C39FF"/>
<path d="M104.276 136.862H97.7588V143.379H104.276V136.862Z" fill="#1C39FF"/>
<path d="M104.276 143.379H97.7588V149.897H104.276V143.379Z" fill="#1C39FF"/>
<path d="M104.276 156.414H97.7588V162.931H104.276V156.414Z" fill="#1C39FF"/>
<path d="M104.276 162.931H97.7588V169.448H104.276V162.931Z" fill="#1C39FF"/>
<path d="M104.276 169.448H97.7588V175.965H104.276V169.448Z" fill="#1C39FF"/>
<path d="M104.276 182.483H97.7588V189H104.276V182.483Z" fill="#1C39FF"/>
<path d="M110.793 39.1035H104.275V45.6208H110.793V39.1035Z" fill="#1C39FF"/>
<path d="M110.793 52.1379H104.275V58.6552H110.793V52.1379Z" fill="#1C39FF"/>
<path d="M110.793 78.2068H104.275V84.724H110.793V78.2068Z" fill="#1C39FF"/>
<path d="M110.793 110.793H104.275V117.31H110.793V110.793Z" fill="#1C39FF"/>
<path d="M110.793 123.828H104.275V130.345H110.793V123.828Z" fill="#1C39FF"/>
<path d="M110.793 130.345H104.275V136.862H110.793V130.345Z" fill="#1C39FF"/>
<path d="M110.793 143.379H104.275V149.897H110.793V143.379Z" fill="#1C39FF"/>
<path d="M110.793 162.931H104.275V169.448H110.793V162.931Z" fill="#1C39FF"/>
<path d="M110.793 169.448H104.275V175.965H110.793V169.448Z" fill="#1C39FF"/>
<path d="M110.793 182.483H104.275V189H110.793V182.483Z" fill="#1C39FF"/>
<path d="M117.31 6.51733H110.793V13.0346H117.31V6.51733Z" fill="#1C39FF"/>
<path d="M117.31 19.5518H110.793V26.069H117.31V19.5518Z" fill="#1C39FF"/>
<path d="M117.31 52.1379H110.793V58.6552H117.31V52.1379Z" fill="#1C39FF"/>
<path d="M117.31 65.1724H110.793V71.6896H117.31V65.1724Z" fill="#1C39FF"/>
<path d="M117.31 71.6897H110.793V78.2069H117.31V71.6897Z" fill="#1C39FF"/>
<path d="M117.31 91.2415H110.793V97.7587H117.31V91.2415Z" fill="#1C39FF"/>
<path d="M117.31 130.345H110.793V136.862H117.31V130.345Z" fill="#1C39FF"/>
<path d="M117.31 149.896H110.793V156.414H117.31V149.896Z" fill="#1C39FF"/>
<path d="M117.31 162.931H110.793V169.448H117.31V162.931Z" fill="#1C39FF"/>
<path d="M123.828 0H117.311V6.51724H123.828V0Z" fill="#1C39FF"/>
<path d="M123.828 26.0688H117.311V32.5861H123.828V26.0688Z" fill="#1C39FF"/>
<path d="M123.828 39.1035H117.311V45.6208H123.828V39.1035Z" fill="#1C39FF"/>
<path d="M123.828 45.6206H117.311V52.1378H123.828V45.6206Z" fill="#1C39FF"/>
<path d="M123.828 71.6897H117.311V78.2069H123.828V71.6897Z" fill="#1C39FF"/>
<path d="M123.828 91.2415H117.311V97.7587H123.828V91.2415Z" fill="#1C39FF"/>
<path d="M123.828 104.276H117.311V110.793H123.828V104.276Z" fill="#1C39FF"/>
<path d="M123.828 110.793H117.311V117.31H123.828V110.793Z" fill="#1C39FF"/>
<path d="M123.828 136.862H117.311V143.379H123.828V136.862Z" fill="#1C39FF"/>
<path d="M123.828 143.379H117.311V149.897H123.828V143.379Z" fill="#1C39FF"/>
<path d="M123.828 149.896H117.311V156.414H123.828V149.896Z" fill="#1C39FF"/>
<path d="M123.828 162.931H117.311V169.448H123.828V162.931Z" fill="#1C39FF"/>
<path d="M123.828 169.448H117.311V175.965H123.828V169.448Z" fill="#1C39FF"/>
<path d="M130.344 6.51733H123.827V13.0346H130.344V6.51733Z" fill="#1C39FF"/>
<path d="M130.344 26.0688H123.827V32.5861H130.344V26.0688Z" fill="#1C39FF"/>
<path d="M130.344 58.6553H123.827V65.1725H130.344V58.6553Z" fill="#1C39FF"/>
<path d="M130.344 71.6897H123.827V78.2069H130.344V71.6897Z" fill="#1C39FF"/>
<path d="M130.344 78.2068H123.827V84.724H130.344V78.2068Z" fill="#1C39FF"/>
<path d="M130.344 91.2415H123.827V97.7587H130.344V91.2415Z" fill="#1C39FF"/>
<path d="M130.344 97.7585H123.827V104.276H130.344V97.7585Z" fill="#1C39FF"/>
<path d="M130.344 110.793H123.827V117.31H130.344V110.793Z" fill="#1C39FF"/>
<path d="M130.344 117.31H123.827V123.828H130.344V117.31Z" fill="#1C39FF"/>
<path d="M130.344 143.379H123.827V149.897H130.344V143.379Z" fill="#1C39FF"/>
<path d="M130.344 149.896H123.827V156.414H130.344V149.896Z" fill="#1C39FF"/>
<path d="M130.344 156.414H123.827V162.931H130.344V156.414Z" fill="#1C39FF"/>
<path d="M130.344 162.931H123.827V169.448H130.344V162.931Z" fill="#1C39FF"/>
<path d="M136.862 6.51733H130.345V13.0346H136.862V6.51733Z" fill="#1C39FF"/>
<path d="M136.862 13.0344H130.345V19.5517H136.862V13.0344Z" fill="#1C39FF"/>
<path d="M136.862 19.5518H130.345V26.069H136.862V19.5518Z" fill="#1C39FF"/>
<path d="M136.862 32.5862H130.345V39.1034H136.862V32.5862Z" fill="#1C39FF"/>
<path d="M136.862 39.1035H130.345V45.6208H136.862V39.1035Z" fill="#1C39FF"/>
<path d="M136.862 58.6553H130.345V65.1725H136.862V58.6553Z" fill="#1C39FF"/>
<path d="M136.862 71.6897H130.345V78.2069H136.862V71.6897Z" fill="#1C39FF"/>
<path d="M136.862 78.2068H130.345V84.724H136.862V78.2068Z" fill="#1C39FF"/>
<path d="M136.862 97.7585H130.345V104.276H136.862V97.7585Z" fill="#1C39FF"/>
<path d="M136.862 110.793H130.345V117.31H136.862V110.793Z" fill="#1C39FF"/>
<path d="M136.862 130.345H130.345V136.862H136.862V130.345Z" fill="#1C39FF"/>
<path d="M136.862 136.862H130.345V143.379H136.862V136.862Z" fill="#1C39FF"/>
<path d="M136.862 143.379H130.345V149.897H136.862V143.379Z" fill="#1C39FF"/>
<path d="M136.862 149.896H130.345V156.414H136.862V149.896Z" fill="#1C39FF"/>
<path d="M136.862 156.414H130.345V162.931H136.862V156.414Z" fill="#1C39FF"/>
<path d="M136.862 169.448H130.345V175.965H136.862V169.448Z" fill="#1C39FF"/>
<path d="M136.862 182.483H130.345V189H136.862V182.483Z" fill="#1C39FF"/>
<path d="M143.38 123.828H136.862V130.345H143.38V123.828Z" fill="#1C39FF"/>
<path d="M143.38 130.345H136.862V136.862H143.38V130.345Z" fill="#1C39FF"/>
<path d="M143.38 156.414H136.862V162.931H143.38V156.414Z" fill="#1C39FF"/>
<path d="M143.38 162.931H136.862V169.448H143.38V162.931Z" fill="#1C39FF"/>
<path d="M143.38 182.483H136.862V189H143.38V182.483Z" fill="#1C39FF"/>
<path d="M149.896 0H143.379V6.51724H149.896V0Z" fill="#1C39FF"/>
<path d="M149.896 6.51733H143.379V13.0346H149.896V6.51733Z" fill="#1C39FF"/>
<path d="M149.896 13.0344H143.379V19.5517H149.896V13.0344Z" fill="#1C39FF"/>
<path d="M149.896 19.5518H143.379V26.069H149.896V19.5518Z" fill="#1C39FF"/>
<path d="M149.896 26.0688H143.379V32.5861H149.896V26.0688Z" fill="#1C39FF"/>
<path d="M149.896 32.5862H143.379V39.1034H149.896V32.5862Z" fill="#1C39FF"/>
<path d="M149.896 39.1035H143.379V45.6208H149.896V39.1035Z" fill="#1C39FF"/>
<path d="M149.896 52.1379H143.379V58.6552H149.896V52.1379Z" fill="#1C39FF"/>
<path d="M149.896 65.1724H143.379V71.6896H149.896V65.1724Z" fill="#1C39FF"/>
<path d="M149.896 78.2068H143.379V84.724H149.896V78.2068Z" fill="#1C39FF"/>
<path d="M149.896 84.7241H143.379V91.2414H149.896V84.7241Z" fill="#1C39FF"/>
<path d="M149.896 91.2415H143.379V97.7587H149.896V91.2415Z" fill="#1C39FF"/>
<path d="M149.896 123.828H143.379V130.345H149.896V123.828Z" fill="#1C39FF"/>
<path d="M149.896 130.345H143.379V136.862H149.896V130.345Z" fill="#1C39FF"/>
<path d="M149.896 143.379H143.379V149.897H149.896V143.379Z" fill="#1C39FF"/>
<path d="M149.896 156.414H143.379V162.931H149.896V156.414Z" fill="#1C39FF"/>
<path d="M156.414 0H149.896V6.51724H156.414V0Z" fill="#1C39FF"/>
<path d="M156.414 39.1035H149.896V45.6208H156.414V39.1035Z" fill="#1C39FF"/>
<path d="M156.414 58.6553H149.896V65.1725H156.414V58.6553Z" fill="#1C39FF"/>
<path d="M156.414 84.7241H149.896V91.2414H156.414V84.7241Z" fill="#1C39FF"/>
<path d="M156.414 91.2415H149.896V97.7587H156.414V91.2415Z" fill="#1C39FF"/>
<path d="M156.414 97.7585H149.896V104.276H156.414V97.7585Z" fill="#1C39FF"/>
<path d="M156.414 104.276H149.896V110.793H156.414V104.276Z" fill="#1C39FF"/>
<path d="M156.414 117.31H149.896V123.828H156.414V117.31Z" fill="#1C39FF"/>
<path d="M156.414 130.345H149.896V136.862H156.414V130.345Z" fill="#1C39FF"/>
<path d="M156.414 156.414H149.896V162.931H156.414V156.414Z" fill="#1C39FF"/>
<path d="M156.414 162.931H149.896V169.448H156.414V162.931Z" fill="#1C39FF"/>
<path d="M156.414 169.448H149.896V175.965H156.414V169.448Z" fill="#1C39FF"/>
<path d="M156.414 182.483H149.896V189H156.414V182.483Z" fill="#1C39FF"/>
<path d="M162.931 0H156.414V6.51724H162.931V0Z" fill="#1C39FF"/>
<path d="M162.931 13.0344H156.414V19.5517H162.931V13.0344Z" fill="#1C39FF"/>
<path d="M162.931 19.5518H156.414V26.069H162.931V19.5518Z" fill="#1C39FF"/>
<path d="M162.931 26.0688H156.414V32.5861H162.931V26.0688Z" fill="#1C39FF"/>
<path d="M162.931 39.1035H156.414V45.6208H162.931V39.1035Z" fill="#1C39FF"/>
<path d="M162.931 58.6553H156.414V65.1725H162.931V58.6553Z" fill="#1C39FF"/>
<path d="M162.931 71.6897H156.414V78.2069H162.931V71.6897Z" fill="#1C39FF"/>
<path d="M162.931 84.7241H156.414V91.2414H162.931V84.7241Z" fill="#1C39FF"/>
<path d="M162.931 110.793H156.414V117.31H162.931V110.793Z" fill="#1C39FF"/>
<path d="M162.931 123.828H156.414V130.345H162.931V123.828Z" fill="#1C39FF"/>
<path d="M162.931 130.345H156.414V136.862H162.931V130.345Z" fill="#1C39FF"/>
<path d="M162.931 136.862H156.414V143.379H162.931V136.862Z" fill="#1C39FF"/>
<path d="M162.931 143.379H156.414V149.897H162.931V143.379Z" fill="#1C39FF"/>
<path d="M162.931 149.896H156.414V156.414H162.931V149.896Z" fill="#1C39FF"/>
<path d="M162.931 156.414H156.414V162.931H162.931V156.414Z" fill="#1C39FF"/>
<path d="M162.931 169.448H156.414V175.965H162.931V169.448Z" fill="#1C39FF"/>
<path d="M162.931 182.483H156.414V189H162.931V182.483Z" fill="#1C39FF"/>
<path d="M169.448 0H162.931V6.51724H169.448V0Z" fill="#1C39FF"/>
<path d="M169.448 13.0344H162.931V19.5517H169.448V13.0344Z" fill="#1C39FF"/>
<path d="M169.448 19.5518H162.931V26.069H169.448V19.5518Z" fill="#1C39FF"/>
<path d="M169.448 26.0688H162.931V32.5861H169.448V26.0688Z" fill="#1C39FF"/>
<path d="M169.448 39.1035H162.931V45.6208H169.448V39.1035Z" fill="#1C39FF"/>
<path d="M169.448 71.6897H162.931V78.2069H169.448V71.6897Z" fill="#1C39FF"/>
<path d="M169.448 84.7241H162.931V91.2414H169.448V84.7241Z" fill="#1C39FF"/>
<path d="M169.448 104.276H162.931V110.793H169.448V104.276Z" fill="#1C39FF"/>
<path d="M169.448 117.31H162.931V123.828H169.448V117.31Z" fill="#1C39FF"/>
<path d="M169.448 123.828H162.931V130.345H169.448V123.828Z" fill="#1C39FF"/>
<path d="M169.448 130.345H162.931V136.862H169.448V130.345Z" fill="#1C39FF"/>
<path d="M169.448 136.862H162.931V143.379H169.448V136.862Z" fill="#1C39FF"/>
<path d="M169.448 143.379H162.931V149.897H169.448V143.379Z" fill="#1C39FF"/>
<path d="M169.448 156.414H162.931V162.931H169.448V156.414Z" fill="#1C39FF"/>
<path d="M169.448 175.966H162.931V182.483H169.448V175.966Z" fill="#1C39FF"/>
<path d="M175.965 0H169.448V6.51724H175.965V0Z" fill="#1C39FF"/>
<path d="M175.965 13.0344H169.448V19.5517H175.965V13.0344Z" fill="#1C39FF"/>
<path d="M175.965 19.5518H169.448V26.069H175.965V19.5518Z" fill="#1C39FF"/>
<path d="M175.965 26.0688H169.448V32.5861H175.965V26.0688Z" fill="#1C39FF"/>
<path d="M175.965 39.1035H169.448V45.6208H175.965V39.1035Z" fill="#1C39FF"/>
<path d="M175.965 58.6553H169.448V65.1725H175.965V58.6553Z" fill="#1C39FF"/>
<path d="M175.965 65.1724H169.448V71.6896H175.965V65.1724Z" fill="#1C39FF"/>
<path d="M175.965 84.7241H169.448V91.2414H175.965V84.7241Z" fill="#1C39FF"/>
<path d="M175.965 91.2415H169.448V97.7587H175.965V91.2415Z" fill="#1C39FF"/>
<path d="M175.965 97.7585H169.448V104.276H175.965V97.7585Z" fill="#1C39FF"/>
<path d="M175.965 110.793H169.448V117.31H175.965V110.793Z" fill="#1C39FF"/>
<path d="M175.965 123.828H169.448V130.345H175.965V123.828Z" fill="#1C39FF"/>
<path d="M175.965 130.345H169.448V136.862H175.965V130.345Z" fill="#1C39FF"/>
<path d="M175.965 169.448H169.448V175.965H175.965V169.448Z" fill="#1C39FF"/>
<path d="M175.965 175.966H169.448V182.483H175.965V175.966Z" fill="#1C39FF"/>
<path d="M182.483 0H175.966V6.51724H182.483V0Z" fill="#1C39FF"/>
<path d="M182.483 39.1035H175.966V45.6208H182.483V39.1035Z" fill="#1C39FF"/>
<path d="M182.483 58.6553H175.966V65.1725H182.483V58.6553Z" fill="#1C39FF"/>
<path d="M182.483 84.7241H175.966V91.2414H182.483V84.7241Z" fill="#1C39FF"/>
<path d="M182.483 110.793H175.966V117.31H182.483V110.793Z" fill="#1C39FF"/>
<path d="M182.483 130.345H175.966V136.862H182.483V130.345Z" fill="#1C39FF"/>
<path d="M182.483 149.896H175.966V156.414H182.483V149.896Z" fill="#1C39FF"/>
<path d="M182.483 156.414H175.966V162.931H182.483V156.414Z" fill="#1C39FF"/>
<path d="M182.483 169.448H175.966V175.965H182.483V169.448Z" fill="#1C39FF"/>
<path d="M189 0H182.482V6.51724H189V0Z" fill="#1C39FF"/>
<path d="M189 6.51733H182.482V13.0346H189V6.51733Z" fill="#1C39FF"/>
<path d="M189 13.0344H182.482V19.5517H189V13.0344Z" fill="#1C39FF"/>
<path d="M189 19.5518H182.482V26.069H189V19.5518Z" fill="#1C39FF"/>
<path d="M189 26.0688H182.482V32.5861H189V26.0688Z" fill="#1C39FF"/>
<path d="M189 32.5862H182.482V39.1034H189V32.5862Z" fill="#1C39FF"/>
<path d="M189 39.1035H182.482V45.6208H189V39.1035Z" fill="#1C39FF"/>
<path d="M189 52.1379H182.482V58.6552H189V52.1379Z" fill="#1C39FF"/>
<path d="M189 71.6897H182.482V78.2069H189V71.6897Z" fill="#1C39FF"/>
<path d="M189 78.2068H182.482V84.724H189V78.2068Z" fill="#1C39FF"/>
<path d="M189 84.7241H182.482V91.2414H189V84.7241Z" fill="#1C39FF"/>
<path d="M189 91.2415H182.482V97.7587H189V91.2415Z" fill="#1C39FF"/>
<path d="M189 97.7585H182.482V104.276H189V97.7585Z" fill="#1C39FF"/>
<path d="M189 117.31H182.482V123.828H189V117.31Z" fill="#1C39FF"/>
<path d="M189 149.896H182.482V156.414H189V149.896Z" fill="#1C39FF"/>
<path d="M189 156.414H182.482V162.931H189V156.414Z" fill="#1C39FF"/>
<path d="M189 162.931H182.482V169.448H189V162.931Z" fill="#1C39FF"/>
<path d="M189 169.448H182.482V175.965H189V169.448Z" fill="#1C39FF"/>
<path d="M189 175.966H182.482V182.483H189V175.966Z" fill="#1C39FF"/>
</svg>
