<svg width="1016" height="477" viewBox="0 0 1016 477" fill="none" xmlns="http://www.w3.org/2000/svg">
<path d="M1016 397H0L17.9823 477H941.298L1016 397Z" fill="white"/>
<path d="M0 267H934V352H16.8288L0 267Z" fill="white"/>
<rect x="114" y="282" width="55" height="55" fill="#1C39FF"/>
<path d="M129.879 317L134.339 309.82L130.119 303H132.539L135.559 307.86L138.579 303H140.999L136.759 309.82L141.239 317H138.819L135.559 311.76L132.299 317H129.879ZM142.552 317L146.652 311.26L142.752 305.8H145.212L147.872 309.54L150.552 305.8H153.012L149.112 311.26L153.212 317H150.752L147.872 312.98L145.012 317H142.552Z" fill="white"/>
<rect x="39" y="282" width="55" height="55" fill="#1C39FF"/>
<path d="M59.9453 302.54V304H60.0453C61.712 304 63.1453 304.56 64.3453 305.68C65.5586 306.8 66.1653 308.193 66.1653 309.86C66.1653 311.527 65.5586 312.92 64.3453 314.04C63.1453 315.16 61.712 315.72 60.0453 315.72H59.9453V317.24H57.8653V315.72H57.7653C56.0853 315.72 54.6453 315.16 53.4453 314.04C52.2453 312.92 51.6453 311.527 51.6453 309.86C51.6453 308.193 52.2453 306.8 53.4453 305.68C54.6453 304.56 56.0853 304 57.7653 304H57.8653V302.54H59.9453ZM59.9453 313.72H60.0453C61.192 313.72 62.152 313.333 62.9253 312.56C63.6986 311.787 64.0853 310.887 64.0853 309.86C64.0853 308.833 63.6986 307.933 62.9253 307.16C62.152 306.387 61.192 306 60.0453 306H59.9453V313.72ZM57.8653 313.72V306H57.7653C56.6186 306 55.6586 306.387 54.8853 307.16C54.112 307.933 53.7253 308.833 53.7253 309.86C53.7253 310.887 54.112 311.787 54.8853 312.56C55.6586 313.333 56.6186 313.72 57.7653 313.72H57.8653ZM75.9594 302.34V305.56C77.4794 305.613 78.7594 306.173 79.7994 307.24C80.8394 308.307 81.3594 309.693 81.3594 311.4C81.3594 313.107 80.8394 314.493 79.7994 315.56C78.7594 316.627 77.4794 317.187 75.9594 317.24V320.7H73.9594V317.24C72.4394 317.187 71.1594 316.627 70.1194 315.56C69.0794 314.493 68.5594 313.107 68.5594 311.4C68.5594 309.693 69.0794 308.307 70.1194 307.24C71.1594 306.173 72.4394 305.613 73.9594 305.56V302.34H75.9594ZM73.9594 315.32V307.48C72.9194 307.507 72.0927 307.893 71.4794 308.64C70.866 309.387 70.5594 310.307 70.5594 311.4C70.5594 312.493 70.866 313.413 71.4794 314.16C72.0927 314.907 72.9194 315.293 73.9594 315.32ZM75.9594 307.48V315.32C76.9994 315.293 77.826 314.907 78.4394 314.16C79.0527 313.413 79.3594 312.493 79.3594 311.4C79.3594 310.307 79.0527 309.387 78.4394 308.64C77.826 307.893 76.9994 307.507 75.9594 307.48Z" fill="white"/>
<rect x="189" y="282" width="55" height="55" fill="#1C39FF"/>
<path d="M216.211 319.88H214.211V317H204.311V303H206.391V315H212.471V303H214.551V315H216.211V319.88ZM219.113 317V305.8H221.113V315.08H226.233V305.8H228.233V315.08H229.893V319.84H227.893V317H219.113Z" fill="white"/>
<rect x="264" y="282" width="55" height="55" fill="#1C39FF"/>
<path d="M280.602 303H282.682V307.06C282.682 307.767 282.949 308.327 283.482 308.74C284.029 309.153 284.716 309.36 285.542 309.36C286.529 309.36 287.462 309.213 288.342 308.92V303H290.422V317H288.342V310.94C287.529 311.22 286.589 311.36 285.522 311.36C284.909 311.36 284.322 311.287 283.762 311.14C283.216 310.98 282.696 310.747 282.202 310.44C281.722 310.133 281.336 309.7 281.042 309.14C280.749 308.58 280.602 307.927 280.602 307.18V303ZM293.73 305.8H295.73V309.18C295.73 309.793 295.97 310.28 296.45 310.64C296.943 310.987 297.563 311.16 298.31 311.16C299.216 311.16 300.01 311.027 300.69 310.76V305.8H302.69V317H300.69V312.72C299.916 312.96 299.11 313.08 298.27 313.08C297.043 313.08 295.976 312.76 295.07 312.12C294.176 311.48 293.73 310.52 293.73 309.24V305.8Z" fill="white"/>
<rect x="339" y="282" width="55" height="55" fill="#1C39FF"/>
<path d="M364.822 317H350.422V303H352.502V315H356.582V303H358.662V315H362.742V303H364.822V317ZM368.72 305.8H370.72V315.08H374.2V305.8H376.2V315.08H379.68V305.8H381.68V317H368.72V305.8Z" fill="white"/>
<rect x="414" y="282" width="55" height="55" fill="#1C39FF"/>
<path d="M441.367 318.88H439.367V316H425.307V302H427.387V314H431.467V302H433.547V314H437.627V302H439.707V314H441.367V318.88ZM449.749 304.8H451.749V314.08H455.229V304.8H457.229V314.08H458.889V318.84H456.889V316H444.269V304.8H446.269V314.08H449.749V304.8Z" fill="white"/>
<rect x="489" y="282" width="55" height="55" fill="#1C39FF"/>
<path d="M510.413 307.72V305.8H515.213V309.48H518.533C519.533 309.48 520.407 309.86 521.153 310.62C521.913 311.367 522.293 312.24 522.293 313.24C522.293 314.24 521.913 315.12 521.153 315.88C520.407 316.627 519.533 317 518.533 317H513.213V307.72H510.413ZM519.733 314.52C520.107 314.147 520.293 313.72 520.293 313.24C520.293 312.76 520.107 312.333 519.733 311.96C519.36 311.587 518.927 311.4 518.433 311.4H515.213V315.08H518.433C518.927 315.08 519.36 314.893 519.733 314.52Z" fill="white"/>
<rect x="564" y="282" width="55" height="55" fill="#1C39FF"/>
<path d="M588.068 305.8V309.48H590.408C591.408 309.48 592.281 309.86 593.028 310.62C593.788 311.367 594.168 312.24 594.168 313.24C594.168 314.24 593.788 315.12 593.028 315.88C592.281 316.627 591.408 317 590.408 317H586.068V305.8H588.068ZM597.928 317H595.928V305.8H597.928V317ZM591.608 314.52C591.981 314.147 592.168 313.72 592.168 313.24C592.168 312.76 591.981 312.333 591.608 311.96C591.235 311.587 590.801 311.4 590.308 311.4H588.068V315.08H590.308C590.801 315.08 591.235 314.893 591.608 314.52Z" fill="white"/>
<rect x="639" y="282" width="55" height="55" fill="#1C39FF"/>
<path d="M665.109 305.8V309.48H668.429C669.429 309.48 670.302 309.86 671.049 310.62C671.809 311.367 672.189 312.24 672.189 313.24C672.189 314.24 671.809 315.12 671.049 315.88C670.302 316.627 669.429 317 668.429 317H663.109V305.8H665.109ZM669.629 314.52C670.002 314.147 670.189 313.72 670.189 313.24C670.189 312.76 670.002 312.333 669.629 311.96C669.256 311.587 668.822 311.4 668.329 311.4H665.109V315.08H668.329C668.822 315.08 669.256 314.893 669.629 314.52Z" fill="white"/>
<rect x="714" y="282" width="55" height="55" fill="#1C39FF"/>
<path d="M734.985 302.76C736.145 302.76 737.205 303.107 738.165 303.8C739.138 304.493 739.891 305.393 740.425 306.5C740.958 307.607 741.225 308.773 741.225 310C741.225 311.227 740.958 312.393 740.425 313.5C739.891 314.607 739.138 315.507 738.165 316.2C737.205 316.893 736.145 317.24 734.985 317.24C733.758 317.24 732.651 316.86 731.665 316.1C730.678 315.327 729.918 314.327 729.385 313.1H731.685C732.525 314.527 733.625 315.24 734.985 315.24C736.011 315.24 736.905 314.833 737.665 314.02C738.425 313.193 738.885 312.187 739.045 311H733.565V309H739.045C738.885 307.813 738.425 306.813 737.665 306C736.918 305.173 736.025 304.76 734.985 304.76C733.625 304.76 732.525 305.473 731.685 306.9H729.385C729.918 305.673 730.678 304.68 731.665 303.92C732.651 303.147 733.758 302.76 734.985 302.76ZM748.208 315.32C748.941 315.32 749.594 315.027 750.168 314.44C750.741 313.853 751.114 313.153 751.288 312.34H747.168V310.42H751.288C751.088 309.607 750.708 308.913 750.148 308.34C749.588 307.767 748.941 307.48 748.208 307.48C747.128 307.48 746.261 308.047 745.608 309.18H743.428C743.841 308.127 744.474 307.26 745.328 306.58C746.181 305.9 747.141 305.56 748.208 305.56C749.648 305.56 750.874 306.153 751.888 307.34C752.901 308.527 753.408 309.88 753.408 311.4C753.408 312.92 752.901 314.273 751.888 315.46C750.874 316.647 749.648 317.24 748.208 317.24C747.141 317.24 746.181 316.9 745.328 316.22C744.474 315.54 743.841 314.673 743.428 313.62H745.608C746.261 314.753 747.128 315.32 748.208 315.32Z" fill="white"/>
<rect x="789" y="282" width="55" height="55" fill="#1C39FF"/>
<path d="M804.287 317H802.207V303H804.287V308.8H806.347C806.56 307.133 807.194 305.713 808.247 304.54C809.314 303.353 810.574 302.76 812.027 302.76C813.654 302.76 815.02 303.493 816.127 304.96C817.234 306.413 817.787 308.093 817.787 310C817.787 311.907 817.234 313.593 816.127 315.06C815.02 316.513 813.654 317.24 812.027 317.24C810.52 317.24 809.227 316.607 808.147 315.34C807.08 314.073 806.467 312.56 806.307 310.8H804.287V317ZM814.667 306.38C813.974 305.3 813.094 304.76 812.027 304.76C810.96 304.76 810.08 305.3 809.387 306.38C808.694 307.447 808.347 308.653 808.347 310C808.347 311.347 808.694 312.56 809.387 313.64C810.08 314.707 810.96 315.24 812.027 315.24C813.094 315.24 813.974 314.707 814.667 313.64C815.36 312.56 815.707 311.347 815.707 310C815.707 308.653 815.36 307.447 814.667 306.38ZM820.896 305.8H822.896V310.24H825.016C825.229 308.92 825.776 307.813 826.656 306.92C827.536 306.013 828.569 305.56 829.756 305.56C831.116 305.56 832.263 306.147 833.196 307.32C834.129 308.493 834.596 309.853 834.596 311.4C834.596 312.947 834.129 314.307 833.196 315.48C832.263 316.653 831.116 317.24 829.756 317.24C828.503 317.24 827.429 316.747 826.536 315.76C825.643 314.773 825.116 313.573 824.956 312.16H822.896V317H820.896V305.8ZM831.776 308.68C831.229 307.88 830.556 307.48 829.756 307.48C828.956 307.48 828.283 307.88 827.736 308.68C827.189 309.48 826.916 310.387 826.916 311.4C826.916 312.413 827.189 313.32 827.736 314.12C828.283 314.92 828.956 315.32 829.756 315.32C830.556 315.32 831.229 314.92 831.776 314.12C832.323 313.32 832.596 312.413 832.596 311.4C832.596 310.387 832.323 309.48 831.776 308.68Z" fill="white"/>
<rect x="864" y="282" width="55" height="55" fill="#1C39FF"/>
<path d="M880.239 307.12C880.239 306 880.645 305.033 881.459 304.22C882.285 303.407 883.252 303 884.359 303H889.919V317H887.839V311.24H885.259L882.019 317H879.659L883.039 311.02C882.225 310.727 881.552 310.227 881.019 309.52C880.499 308.8 880.239 308 880.239 307.12ZM882.979 305.66C882.539 306.1 882.319 306.587 882.319 307.12C882.319 307.653 882.539 308.14 882.979 308.58C883.432 309.02 883.925 309.24 884.459 309.24H887.839V305H884.459C883.925 305 883.432 305.22 882.979 305.66ZM893.39 309.52C893.39 308.493 893.75 307.62 894.47 306.9C895.203 306.167 896.09 305.8 897.13 305.8H902.05V317H900.05V313.24H897.91L895.11 317H892.71L895.69 312.96C894.997 312.68 894.437 312.233 894.01 311.62C893.597 310.993 893.39 310.293 893.39 309.52ZM895.93 308.24C895.57 308.587 895.39 309.013 895.39 309.52C895.39 310.027 895.57 310.453 895.93 310.8C896.29 311.147 896.73 311.32 897.25 311.32H900.05V307.72H897.25C896.73 307.72 896.29 307.893 895.93 308.24Z" fill="white"/>
<path d="M19.6343 172H859V257H19.6338L19.6343 172Z" fill="white"/>
<rect x="39" y="187" width="55" height="55" fill="#1C39FF"/>
<path d="M56.9533 221H55.1133V207H57.1933V217.14L64.1133 207H65.9533V221H63.8733V210.86L56.9533 221ZM69.857 209.8H71.857V217.32L77.217 209.8H78.977V221H76.977V213.48L71.617 221H69.857V209.8Z" fill="white"/>
<rect x="114" y="187" width="55" height="55" fill="#1C39FF"/>
<path d="M139.444 208H142.384L136.244 214.1L142.584 222H139.944L134.784 215.54L133.404 216.92V222H131.324V208H133.404V214.02L139.444 208ZM154.297 210.8L149.497 215.68L154.377 222H151.877L148.097 217.1L146.877 218.34V222H144.877V210.8H146.877V215.6L151.557 210.8H154.297Z" fill="white"/>
<rect x="189" y="187" width="55" height="55" fill="#1C39FF"/>
<path d="M214.2 210.02H209.32V217.42C209.32 218.167 209.227 218.867 209.04 219.52C208.853 220.173 208.493 220.76 207.96 221.28C207.427 221.8 206.747 222.06 205.92 222.06C205.467 222.06 205.147 222.02 204.96 221.94V219.98C205.08 220.033 205.273 220.06 205.54 220.06C206.06 220.06 206.473 219.827 206.78 219.36C207.087 218.88 207.24 218.233 207.24 217.42V208H216.28V222H214.2V210.02ZM226.941 212.72H222.741V218.3C222.741 220.807 221.721 222.06 219.681 222.06C219.348 222.06 219.081 222.027 218.881 221.96V220.08C218.975 220.12 219.141 220.14 219.381 220.14C220.288 220.14 220.741 219.527 220.741 218.3V210.8H228.941V222H226.941V212.72Z" fill="white"/>
<rect x="264" y="187" width="55" height="55" fill="#1C39FF"/>
<path d="M285.073 222.273H283.433L280.113 214.233V222.273H278.033V208.273H279.873L284.253 218.973L288.653 208.273H290.493V222.273H288.413V214.233L285.073 222.273ZM301.018 222.273H299.438L296.398 215.773V222.273H294.398V211.073H296.198L300.258 219.733L304.338 211.073H306.058V222.273H304.058V215.773L301.018 222.273Z" fill="white"/>
<rect x="339" y="187" width="55" height="55" fill="#1C39FF"/>
<path d="M365.953 222.273H363.873V216.073H357.193V222.273H355.113V208.273H357.193V214.073H363.873V208.273H365.953V222.273ZM369.857 211.073H371.857V215.553H376.977V211.073H378.977V222.273H376.977V217.473H371.857V222.273H369.857V211.073Z" fill="white"/>
<rect x="414" y="187" width="55" height="55" fill="#1C39FF"/>
<path d="M432.402 208.82C433.375 208.113 434.442 207.76 435.602 207.76C436.762 207.76 437.829 208.113 438.802 208.82C439.775 209.527 440.522 210.433 441.042 211.54C441.575 212.633 441.842 213.787 441.842 215C441.842 216.213 441.575 217.373 441.042 218.48C440.522 219.573 439.775 220.473 438.802 221.18C437.829 221.887 436.762 222.24 435.602 222.24C434.442 222.24 433.375 221.887 432.402 221.18C431.429 220.473 430.675 219.573 430.142 218.48C429.622 217.373 429.362 216.213 429.362 215C429.362 213.787 429.622 212.633 430.142 211.54C430.675 210.433 431.429 209.527 432.402 208.82ZM438.562 218.62C439.362 217.527 439.762 216.32 439.762 215C439.762 213.68 439.362 212.48 438.562 211.4C437.775 210.307 436.789 209.76 435.602 209.76C434.415 209.76 433.422 210.307 432.622 211.4C431.835 212.48 431.442 213.68 431.442 215C431.442 216.32 431.835 217.527 432.622 218.62C433.422 219.7 434.415 220.24 435.602 220.24C436.789 220.24 437.775 219.7 438.562 218.62ZM445.765 212.34C446.778 211.153 448.005 210.56 449.445 210.56C450.885 210.56 452.112 211.153 453.125 212.34C454.138 213.527 454.645 214.88 454.645 216.4C454.645 217.92 454.138 219.273 453.125 220.46C452.112 221.647 450.885 222.24 449.445 222.24C448.005 222.24 446.778 221.647 445.765 220.46C444.752 219.273 444.245 217.92 444.245 216.4C444.245 214.88 444.752 213.527 445.765 212.34ZM447.165 219.1C447.792 219.913 448.552 220.32 449.445 220.32C450.338 220.32 451.092 219.913 451.705 219.1C452.332 218.273 452.645 217.373 452.645 216.4C452.645 215.427 452.332 214.533 451.705 213.72C451.092 212.893 450.338 212.48 449.445 212.48C448.552 212.48 447.792 212.893 447.165 213.72C446.552 214.533 446.245 215.427 446.245 216.4C446.245 217.373 446.552 218.273 447.165 219.1Z" fill="white"/>
<rect x="489" y="187" width="55" height="55" fill="#1C39FF"/>
<path d="M515.851 222H513.771V210H507.291V222H505.211V208H515.851V222ZM519.759 210.8H528.879V222H526.879V212.72H521.759V222H519.759V210.8Z" fill="white"/>
<rect x="564" y="187" width="55" height="55" fill="#1C39FF"/>
<path d="M580.17 208H586.19C587.323 208 588.31 208.42 589.15 209.26C590.003 210.1 590.43 211.093 590.43 212.24C590.43 213.387 590.003 214.38 589.15 215.22C588.31 216.06 587.323 216.48 586.19 216.48H582.25V222H580.17V208ZM587.65 213.82C588.117 213.367 588.35 212.84 588.35 212.24C588.35 211.64 588.117 211.12 587.65 210.68C587.183 210.227 586.65 210 586.05 210H582.25V214.48H586.05C586.65 214.48 587.183 214.26 587.65 213.82ZM598.434 210.56C599.874 210.56 601.101 211.153 602.114 212.34C603.127 213.527 603.634 214.88 603.634 216.4C603.634 217.92 603.127 219.273 602.114 220.46C601.101 221.647 599.874 222.24 598.434 222.24C597.167 222.24 596.101 221.747 595.234 220.76V225.7H593.234V210.8H595.234V212.04C596.061 211.053 597.127 210.56 598.434 210.56ZM596.154 219.1C596.781 219.913 597.541 220.32 598.434 220.32C599.327 220.32 600.081 219.913 600.694 219.1C601.321 218.273 601.634 217.373 601.634 216.4C601.634 215.427 601.321 214.533 600.694 213.72C600.081 212.893 599.327 212.48 598.434 212.48C597.541 212.48 596.781 212.893 596.154 213.72C595.541 214.533 595.234 215.427 595.234 216.4C595.234 217.373 595.541 218.273 596.154 219.1Z" fill="white"/>
<rect x="639" y="187" width="55" height="55" fill="#1C39FF"/>
<path d="M661.922 207.76C663.149 207.76 664.256 208.147 665.242 208.92C666.229 209.68 666.989 210.673 667.522 211.9H665.222C664.382 210.473 663.282 209.76 661.922 209.76C660.736 209.76 659.742 210.307 658.942 211.4C658.156 212.48 657.762 213.68 657.762 215C657.762 216.32 658.156 217.527 658.942 218.62C659.742 219.7 660.736 220.24 661.922 220.24C663.282 220.24 664.382 219.527 665.222 218.1H667.522C666.989 219.327 666.229 220.327 665.242 221.1C664.256 221.86 663.149 222.24 661.922 222.24C660.762 222.24 659.696 221.887 658.722 221.18C657.749 220.473 656.996 219.573 656.462 218.48C655.942 217.373 655.682 216.213 655.682 215C655.682 213.787 655.942 212.633 656.462 211.54C656.996 210.433 657.749 209.527 658.722 208.82C659.696 208.113 660.762 207.76 661.922 207.76ZM674.73 220.32C675.81 220.32 676.677 219.753 677.33 218.62H679.51C679.097 219.673 678.463 220.54 677.61 221.22C676.757 221.9 675.797 222.24 674.73 222.24C673.29 222.24 672.063 221.647 671.05 220.46C670.037 219.273 669.53 217.92 669.53 216.4C669.53 214.88 670.037 213.527 671.05 212.34C672.063 211.153 673.29 210.56 674.73 210.56C675.797 210.56 676.757 210.9 677.61 211.58C678.463 212.26 679.097 213.127 679.51 214.18H677.33C676.677 213.047 675.81 212.48 674.73 212.48C673.837 212.48 673.077 212.893 672.45 213.72C671.837 214.533 671.53 215.427 671.53 216.4C671.53 217.373 671.837 218.273 672.45 219.1C673.077 219.913 673.837 220.32 674.73 220.32Z" fill="white"/>
<rect x="714" y="187" width="55" height="55" fill="#1C39FF"/>
<path d="M742.341 210H737.981V222H735.901V210H731.541V208H742.341V210ZM752.562 210.8V212.72H748.802V222H746.802V212.72H743.042V210.8H752.562Z" fill="white"/>
<rect x="789" y="187" width="55" height="55" fill="#1C39FF"/>
<path d="M816.87 208L812.17 219.84C811.556 221.44 810.456 222.24 808.87 222.24C808.403 222.24 808.01 222.2 807.69 222.12V220.14C807.983 220.207 808.383 220.24 808.89 220.24C809.516 220.24 809.963 219.907 810.23 219.24L810.43 218.76L805.75 208H807.95L811.49 216.18L814.75 208H816.87ZM820.144 224.02C820.944 224.047 821.484 223.653 821.764 222.84L822.064 222L817.864 210.8H819.984L823.064 219.14L825.924 210.8H828.044L823.684 223.38C823.39 224.247 822.977 224.887 822.444 225.3C821.924 225.727 821.237 225.94 820.384 225.94C819.984 225.94 819.664 225.92 819.424 225.88V223.98C819.717 224.007 819.957 224.02 820.144 224.02Z" fill="white"/>
<path d="M99.0001 77H784V162H98.9999L99.0001 77Z" fill="white"/>
<rect x="114" y="92" width="55" height="55" fill="#1C39FF"/>
<path d="M139.844 127L138.524 123.4H133.164L131.844 127H129.744L134.924 113H136.764L141.944 127H139.844ZM135.844 116.18L133.904 121.4H137.784L135.844 116.18ZM143.692 123.72C143.692 122.813 144.018 122.04 144.672 121.4C145.325 120.76 146.112 120.44 147.032 120.44H149.272C149.698 120.44 150.058 120.36 150.352 120.2C150.645 120.04 150.792 119.793 150.792 119.46C150.792 118.913 150.552 118.447 150.072 118.06C149.592 117.673 149.038 117.48 148.412 117.48C147.332 117.48 146.465 118.047 145.812 119.18H143.652C144.038 118.14 144.658 117.28 145.512 116.6C146.378 115.907 147.338 115.56 148.392 115.56C149.698 115.56 150.765 116 151.592 116.88C152.432 117.76 152.852 118.827 152.852 120.08V127H150.852V126.16C150.252 126.88 149.325 127.24 148.072 127.24C146.818 127.24 145.772 126.92 144.932 126.28C144.105 125.627 143.692 124.773 143.692 123.72ZM145.692 123.72C145.692 124.187 145.918 124.573 146.372 124.88C146.825 125.173 147.392 125.32 148.072 125.32C148.872 125.32 149.532 125.113 150.052 124.7C150.585 124.273 150.852 123.727 150.852 123.06V121.5C150.532 122.073 149.938 122.36 149.072 122.36H147.032C146.658 122.36 146.338 122.493 146.072 122.76C145.818 123.013 145.692 123.333 145.692 123.72Z" fill="white"/>
<rect x="189" y="92" width="55" height="55" fill="#1C39FF"/>
<path d="M215.372 115H208.092V118.24H211.892C213.052 118.24 214.072 118.68 214.952 119.56C215.832 120.427 216.272 121.447 216.272 122.62C216.272 123.793 215.832 124.82 214.952 125.7C214.072 126.567 213.052 127 211.892 127H206.012V113H215.372V115ZM213.452 124.3C213.945 123.82 214.192 123.26 214.192 122.62C214.192 121.98 213.945 121.427 213.452 120.96C212.958 120.48 212.392 120.24 211.752 120.24H208.092V125H211.752C212.392 125 212.958 124.767 213.452 124.3ZM225.776 119.04C225.176 118.267 224.442 117.88 223.576 117.88C222.709 117.88 221.969 118.267 221.356 119.04C220.756 119.8 220.456 120.647 220.456 121.58C220.456 122.513 220.756 123.367 221.356 124.14C221.969 124.9 222.709 125.28 223.576 125.28C224.442 125.28 225.176 124.9 225.776 124.14C226.389 123.367 226.696 122.513 226.696 121.58C226.696 120.647 226.389 119.8 225.776 119.04ZM227.816 111.9V113.84C227.429 114.04 226.956 114.14 226.396 114.14H223.816C221.976 114.14 220.916 115.153 220.636 117.18C221.302 116.393 222.282 116 223.576 116C224.976 116 226.176 116.567 227.176 117.7C228.189 118.833 228.696 120.14 228.696 121.62C228.696 123.1 228.189 124.407 227.176 125.54C226.176 126.673 224.976 127.24 223.576 127.24C222.029 127.24 220.789 126.627 219.856 125.4C218.936 124.16 218.476 122.633 218.476 120.82C218.476 119.793 218.509 118.907 218.576 118.16C218.656 117.4 218.802 116.64 219.016 115.88C219.242 115.12 219.549 114.5 219.936 114.02C220.322 113.54 220.842 113.14 221.496 112.82C222.162 112.5 222.956 112.313 223.876 112.26H226.396C226.969 112.26 227.442 112.14 227.816 111.9Z" fill="white"/>
<rect x="264" y="92" width="55" height="55" fill="#1C39FF"/>
<path d="M280.414 113H286.474C287.514 113 288.421 113.393 289.194 114.18C289.981 114.953 290.374 115.86 290.374 116.9C290.374 117.953 289.987 118.867 289.214 119.64C289.734 120.04 290.141 120.527 290.434 121.1C290.727 121.673 290.874 122.273 290.874 122.9C290.874 123.993 290.461 124.953 289.634 125.78C288.821 126.593 287.867 127 286.774 127H280.414V113ZM288.134 124.38C288.574 123.953 288.794 123.46 288.794 122.9C288.794 122.34 288.574 121.853 288.134 121.44C287.694 121.013 287.194 120.8 286.634 120.8H282.494V125H286.634C287.194 125 287.694 124.793 288.134 124.38ZM287.694 118.22C288.094 117.833 288.294 117.393 288.294 116.9C288.294 116.407 288.094 115.967 287.694 115.58C287.294 115.193 286.847 115 286.354 115H282.494V118.8H286.354C286.847 118.8 287.294 118.607 287.694 118.22ZM303.289 123.68C303.289 124.56 302.949 125.333 302.269 126C301.602 126.667 300.829 127 299.949 127H293.869V115.8H299.589C300.469 115.8 301.235 116.127 301.889 116.78C302.542 117.42 302.869 118.18 302.869 119.06C302.869 120.033 302.575 120.74 301.989 121.18C302.362 121.447 302.669 121.807 302.909 122.26C303.162 122.713 303.289 123.187 303.289 123.68ZM300.449 119.98C300.729 119.713 300.869 119.4 300.869 119.04C300.869 118.68 300.729 118.373 300.449 118.12C300.169 117.853 299.849 117.72 299.489 117.72H295.869V120.36H299.489C299.849 120.36 300.169 120.233 300.449 119.98ZM300.829 124.66C301.135 124.38 301.289 124.053 301.289 123.68C301.289 123.307 301.135 122.98 300.829 122.7C300.535 122.42 300.195 122.28 299.809 122.28H295.869V125.08H299.809C300.195 125.08 300.535 124.94 300.829 124.66Z" fill="white"/>
<rect x="339" y="92" width="55" height="55" fill="#1C39FF"/>
<path d="M367.282 115H360.562V127H358.482V113H367.282V115ZM368.968 115.8H376.908V117.72H370.968V127H368.968V115.8Z" fill="white"/>
<rect x="414" y="92" width="55" height="55" fill="#1C39FF"/>
<path d="M430.719 113H439.679V125H441.339V129.88H439.339V127H430.039V129.88H428.039V125H428.979C429.593 124.467 430.033 123.907 430.299 123.32C430.579 122.72 430.719 122.013 430.719 121.2V113ZM432.799 115.02V121.2C432.799 122.987 432.353 124.253 431.459 125H437.599V115.02H432.799ZM446.023 115.8H454.103V125.08H455.763V129.84H453.763V127H445.743V129.84H443.743V125.08H444.523C445.523 124.387 446.023 123.3 446.023 121.82V115.8ZM446.843 125.08H452.103V117.72H448.023V121.82C448.023 123.42 447.629 124.507 446.843 125.08Z" fill="white"/>
<rect x="489" y="92" width="55" height="55" fill="#1C39FF"/>
<path d="M514.943 115H507.443V118.8H513.623V120.8H507.443V125H514.943V127H505.363V113H514.943V115ZM522.244 125.32C523.324 125.32 524.19 124.753 524.844 123.62H527.024C526.61 124.673 525.977 125.54 525.124 126.22C524.27 126.9 523.31 127.24 522.244 127.24C520.804 127.24 519.577 126.647 518.564 125.46C517.55 124.273 517.044 122.92 517.044 121.4C517.044 119.88 517.55 118.527 518.564 117.34C519.577 116.153 520.804 115.56 522.244 115.56C523.684 115.56 524.91 116.153 525.924 117.34C526.937 118.527 527.444 119.88 527.444 121.4V122.06H519.084C519.217 122.94 519.577 123.707 520.164 124.36C520.75 125 521.444 125.32 522.244 125.32ZM524.124 118.28C523.59 117.747 522.964 117.48 522.244 117.48C521.524 117.48 520.877 117.753 520.304 118.3C519.744 118.833 519.37 119.487 519.184 120.26H525.284C525.057 119.473 524.67 118.813 524.124 118.28Z" fill="white"/>
<rect x="564" y="92" width="55" height="55" fill="#1C39FF"/>
<path d="M589.943 115H582.443V118.8H588.623V120.8H582.443V125H589.943V127H580.363V113H589.943V115ZM588.043 111.68H585.983V109.76H588.043V111.68ZM584.303 111.68H582.263V109.76H584.303V111.68ZM597.244 125.32C598.324 125.32 599.19 124.753 599.844 123.62H602.024C601.61 124.673 600.977 125.54 600.124 126.22C599.27 126.9 598.31 127.24 597.244 127.24C595.804 127.24 594.577 126.647 593.564 125.46C592.55 124.273 592.044 122.92 592.044 121.4C592.044 119.88 592.55 118.527 593.564 117.34C594.577 116.153 595.804 115.56 597.244 115.56C598.684 115.56 599.91 116.153 600.924 117.34C601.937 118.527 602.444 119.88 602.444 121.4V122.06H594.084C594.217 122.94 594.577 123.707 595.164 124.36C595.75 125 596.444 125.32 597.244 125.32ZM599.124 118.28C598.59 117.747 597.964 117.48 597.244 117.48C596.524 117.48 595.877 117.753 595.304 118.3C594.744 118.833 594.37 119.487 594.184 120.26H600.284C600.057 119.473 599.67 118.813 599.124 118.28ZM600.224 114.48H598.164V112.56H600.224V114.48ZM596.484 114.48H594.444V112.56H596.484V114.48Z" fill="white"/>
<rect x="639" y="92" width="55" height="55" fill="#1C39FF"/>
<path d="M660.39 113V118.94H660.55L664.37 113H666.87L662.39 120L667.25 127H664.73L660.57 120.94H660.39V127H658.31V120.94H658.13L653.97 127H651.45L656.29 120L651.83 113H654.33L658.15 118.94H658.31V113H660.39ZM676.502 115.8V120.38H676.662L679.922 115.8H682.242L678.342 121.2L682.542 127H680.082L676.662 122.3H676.502V127H674.502V122.3H674.322L670.922 127H668.462L672.642 121.2L668.762 115.8H671.082L674.342 120.38H674.502V115.8H676.502Z" fill="white"/>
<rect x="714" y="92" width="55" height="55" fill="#1C39FF"/>
<path d="M731.279 123.24H733.539C733.792 123.813 734.219 124.287 734.819 124.66C735.419 125.033 736.132 125.22 736.959 125.22C737.812 125.22 738.552 124.987 739.179 124.52C739.819 124.053 740.139 123.487 740.139 122.82C740.139 122.193 739.879 121.7 739.359 121.34C738.839 120.98 738.219 120.8 737.499 120.8H735.439V118.8H737.499C738.152 118.8 738.699 118.64 739.139 118.32C739.592 118 739.819 117.567 739.819 117.02C739.819 116.42 739.539 115.9 738.979 115.46C738.432 115.007 737.779 114.78 737.019 114.78C736.285 114.78 735.639 114.967 735.079 115.34C734.519 115.713 734.125 116.167 733.899 116.7H731.639C731.999 115.593 732.665 114.66 733.639 113.9C734.625 113.14 735.752 112.76 737.019 112.76C738.352 112.76 739.499 113.18 740.459 114.02C741.419 114.86 741.899 115.86 741.899 117.02C741.899 117.5 741.779 117.987 741.539 118.48C741.312 118.973 741.019 119.38 740.659 119.7C741.099 119.993 741.465 120.44 741.759 121.04C742.065 121.64 742.219 122.233 742.219 122.82C742.219 124.087 741.699 125.14 740.659 125.98C739.619 126.82 738.385 127.24 736.959 127.24C735.639 127.24 734.445 126.853 733.379 126.08C732.325 125.307 731.625 124.36 731.279 123.24ZM749.091 122.28H747.491V120.36H749.091C749.677 120.36 750.144 120.253 750.491 120.04C750.837 119.813 751.011 119.493 751.011 119.08C751.011 118.64 750.797 118.267 750.371 117.96C749.944 117.64 749.444 117.48 748.871 117.48C748.311 117.48 747.817 117.6 747.391 117.84C746.977 118.067 746.684 118.38 746.511 118.78H744.311C744.617 117.873 745.177 117.113 745.991 116.5C746.817 115.873 747.777 115.56 748.871 115.56C750.004 115.56 750.977 115.9 751.791 116.58C752.604 117.26 753.011 118.093 753.011 119.08C753.011 119.52 752.904 119.94 752.691 120.34C752.491 120.74 752.244 121.04 751.951 121.24C752.324 121.453 752.631 121.773 752.871 122.2C753.111 122.627 753.231 123.1 753.231 123.62C753.231 124.673 752.797 125.54 751.931 126.22C751.064 126.9 750.017 127.24 748.791 127.24C747.657 127.24 746.651 126.94 745.771 126.34C744.891 125.727 744.304 124.973 744.011 124.08H746.191C746.671 124.907 747.537 125.32 748.791 125.32C749.457 125.32 750.031 125.16 750.511 124.84C750.991 124.52 751.231 124.113 751.231 123.62C751.231 123.193 751.037 122.867 750.651 122.64C750.264 122.4 749.744 122.28 749.091 122.28Z" fill="white"/>
<path d="M540.904 67H166L186 0H520.904L540.904 67Z" fill="white"/>
<path d="M305.12 27H308.06L301.92 33.1L308.26 41H305.62L300.46 34.54L299.08 35.92V41H297V27H299.08V33.02L305.12 27ZM310.552 29.8H312.552V37.32L317.912 29.8H319.672V41H317.672V33.48L312.312 41H310.552V29.8ZM328.682 29.56C330.122 29.56 331.349 30.1533 332.362 31.34C333.375 32.5267 333.882 33.88 333.882 35.4C333.882 36.92 333.375 38.2733 332.362 39.46C331.349 40.6467 330.122 41.24 328.682 41.24C327.415 41.24 326.349 40.7467 325.482 39.76V44.7H323.482V29.8H325.482V31.04C326.309 30.0533 327.375 29.56 328.682 29.56ZM326.402 38.1C327.029 38.9133 327.789 39.32 328.682 39.32C329.575 39.32 330.329 38.9133 330.942 38.1C331.569 37.2733 331.882 36.3733 331.882 35.4C331.882 34.4267 331.569 33.5333 330.942 32.72C330.329 31.8933 329.575 31.48 328.682 31.48C327.789 31.48 327.029 31.8933 326.402 32.72C325.789 33.5333 325.482 34.4267 325.482 35.4C325.482 36.3733 325.789 37.2733 326.402 38.1ZM336.978 29.8H338.978V37.32L344.338 29.8H346.098V41H344.098V33.48L338.738 41H336.978V29.8ZM356.668 31.72H352.468V37.3C352.468 39.8067 351.448 41.06 349.408 41.06C349.074 41.06 348.808 41.0267 348.608 40.96V39.08C348.701 39.12 348.868 39.14 349.108 39.14C350.014 39.14 350.468 38.5267 350.468 37.3V29.8H358.668V41H356.668V31.72ZM369.226 31.72H365.026V37.3C365.026 39.8067 364.006 41.06 361.966 41.06C361.633 41.06 361.366 41.0267 361.166 40.96V39.08C361.26 39.12 361.426 39.14 361.666 39.14C362.573 39.14 363.026 38.5267 363.026 37.3V29.8H371.226V41H369.226V31.72ZM375.025 29.8H377.025V37.32L382.385 29.8H384.145V41H382.145V33.48L376.785 41H375.025V29.8ZM387.955 41V29.8H389.955V39.08H395.075V29.8H397.075V39.08H398.735V43.84H396.735V41H387.955ZM400.871 37.72C400.871 36.8133 401.198 36.04 401.851 35.4C402.505 34.76 403.291 34.44 404.211 34.44H406.451C406.878 34.44 407.238 34.36 407.531 34.2C407.825 34.04 407.971 33.7933 407.971 33.46C407.971 32.9133 407.731 32.4467 407.251 32.06C406.771 31.6733 406.218 31.48 405.591 31.48C404.511 31.48 403.645 32.0467 402.991 33.18H400.831C401.218 32.14 401.838 31.28 402.691 30.6C403.558 29.9067 404.518 29.56 405.571 29.56C406.878 29.56 407.945 30 408.771 30.88C409.611 31.76 410.031 32.8267 410.031 34.08V41H408.031V40.16C407.431 40.88 406.505 41.24 405.251 41.24C403.998 41.24 402.951 40.92 402.111 40.28C401.285 39.6267 400.871 38.7733 400.871 37.72ZM402.871 37.72C402.871 38.1867 403.098 38.5733 403.551 38.88C404.005 39.1733 404.571 39.32 405.251 39.32C406.051 39.32 406.711 39.1133 407.231 38.7C407.765 38.2733 408.031 37.7267 408.031 37.06V35.5C407.711 36.0733 407.118 36.36 406.251 36.36H404.211C403.838 36.36 403.518 36.4933 403.251 36.76C402.998 37.0133 402.871 37.3333 402.871 37.72Z" fill="#1C39FF"/>
<path d="M0 362H1016V387H0V362Z" fill="#FED700"/>
</svg>
