<svg width="525" height="194" viewBox="0 0 525 194" fill="none" xmlns="http://www.w3.org/2000/svg">
<rect x="19" y="35" width="365" height="45" fill="white"/>
<rect x="19" y="85" width="405" height="45" fill="white"/>
<path d="M525 155H0L23.11 194H487.321L525 155Z" fill="white"/>
<rect x="29" y="45" width="25" height="25" fill="#1C39FF"/>
<rect x="109" y="45" width="25" height="25" fill="#1C39FF"/>
<rect x="189" y="45" width="25" height="25" fill="#1C39FF"/>
<rect x="269" y="45" width="25" height="25" fill="#1C39FF"/>
<rect x="349" y="45" width="25" height="25" fill="#1C39FF"/>
<rect x="69" y="45" width="25" height="25" fill="#1C39FF"/>
<rect x="149" y="45" width="25" height="25" fill="#1C39FF"/>
<rect x="229" y="45" width="25" height="25" fill="#1C39FF"/>
<rect x="309" y="45" width="25" height="25" fill="#1C39FF"/>
<rect x="29" y="95" width="25" height="25" fill="#1C39FF"/>
<rect x="109" y="95" width="25" height="25" fill="#1C39FF"/>
<rect x="189" y="95" width="25" height="25" fill="#1C39FF"/>
<rect x="269" y="95" width="25" height="25" fill="#1C39FF"/>
<rect x="349" y="95" width="25" height="25" fill="#1C39FF"/>
<rect x="389" y="95" width="25" height="25" fill="#1C39FF"/>
<rect x="69" y="95" width="25" height="25" fill="#1C39FF"/>
<rect x="149" y="95" width="25" height="25" fill="#1C39FF"/>
<rect x="229" y="95" width="25" height="25" fill="#1C39FF"/>
<rect x="309" y="95" width="25" height="25" fill="#1C39FF"/>
<path d="M105.91 0H196.09L206 30H96L105.91 0Z" fill="white"/>
<path d="M0 135H525V150H0V135Z" fill="#FED700"/>
</svg>
