<svg width="920" height="477" viewBox="0 0 920 477" fill="none" xmlns="http://www.w3.org/2000/svg">
<path d="M0 397H920L903.717 477H67.6435L0 397Z" fill="white"/>
<path d="M896 172H211V257H896L896 172Z" fill="white"/>
<path d="M920 267H61V352H904.523L920 267Z" fill="white"/>
<rect width="55" height="55" transform="matrix(-1 0 0 1 881 282)" fill="#1C39FF"/>
<path d="M853.09 304.76L845.27 315H853.09V317H842.49V315.24L850.47 305H842.49V303H853.09V304.76ZM864.808 307.52L858.548 315.08H864.808V317H855.788V315.28L862.048 307.72H855.788V305.8H864.808V307.52Z" fill="white"/>
<rect width="55" height="55" transform="matrix(-1 0 0 1 806 282)" fill="#1C39FF"/>
<path d="M769.903 302L773.403 308.14L776.903 302H779.283L774.443 310.5V316H772.363V310.5L767.523 302H769.903ZM782.271 318.02C783.071 318.047 783.611 317.653 783.891 316.84L784.191 316L779.991 304.8H782.111L785.191 313.14L788.051 304.8H790.171L785.811 317.38C785.517 318.247 785.104 318.887 784.571 319.3C784.051 319.727 783.364 319.94 782.511 319.94C782.111 319.94 781.791 319.92 781.551 319.88V317.98C781.844 318.007 782.084 318.02 782.271 318.02Z" fill="white"/>
<rect width="55" height="55" transform="matrix(-1 0 0 1 731 282)" fill="#1C39FF"/>
<path d="M691.879 317L696.339 309.82L692.119 303H694.539L697.559 307.86L700.579 303H702.999L698.759 309.82L703.239 317H700.819L697.559 311.76L694.299 317H691.879ZM704.552 317L708.652 311.26L704.752 305.8H707.212L709.872 309.54L712.552 305.8H715.012L711.112 311.26L715.212 317H712.752L709.872 312.98L707.012 317H704.552Z" fill="white"/>
<rect width="55" height="55" transform="matrix(-1 0 0 1 656 282)" fill="#1C39FF"/>
<path d="M623.746 312.74L626.366 303H628.486L624.726 317H622.886L620.086 306.94L617.286 317H615.446L611.686 303H613.806L616.426 312.74L619.166 303H621.006L623.746 312.74ZM635.039 317H633.279L629.379 305.8H631.499L634.179 313.46L636.519 305.8H638.279L640.619 313.46L643.299 305.8H645.419L641.519 317H639.759L637.399 309.28L635.039 317Z" fill="white"/>
<rect width="55" height="55" transform="matrix(-1 0 0 1 581 282)" fill="#1C39FF"/>
<path d="M543.705 303L547.625 313.78L551.545 303H553.645L548.545 317H546.705L541.605 303H543.705ZM560.797 317H559.037L554.337 305.8H556.537L559.917 313.84L563.297 305.8H565.497L560.797 317Z" fill="white"/>
<rect width="55" height="55" transform="matrix(-1 0 0 1 506 282)" fill="#1C39FF"/>
<path d="M471.382 315.24C472.275 315.24 473.055 314.9 473.722 314.22C474.389 313.527 474.722 312.727 474.722 311.82V303H476.802V311.82C476.802 313.273 476.262 314.54 475.182 315.62C474.102 316.7 472.835 317.24 471.382 317.24C469.929 317.24 468.662 316.7 467.582 315.62C466.502 314.54 465.962 313.273 465.962 311.82V303H468.042V311.82C468.042 312.713 468.375 313.507 469.042 314.2C469.722 314.893 470.502 315.24 471.382 315.24ZM487.936 305.8H489.936V317H487.936V316.08C487.162 316.853 486.222 317.24 485.116 317.24C483.836 317.24 482.709 316.753 481.736 315.78C480.776 314.793 480.296 313.66 480.296 312.38V305.8H482.296V312.38C482.296 313.14 482.576 313.82 483.136 314.42C483.709 315.02 484.369 315.32 485.116 315.32C485.862 315.32 486.516 315.02 487.076 314.42C487.649 313.82 487.936 313.14 487.936 312.38V305.8Z" fill="white"/>
<rect width="55" height="55" transform="matrix(-1 0 0 1 431 282)" fill="#1C39FF"/>
<path d="M402.624 305H398.264V317H396.184V305H391.824V303H402.624V305ZM406.225 313.34V307.72H403.625V305.8H406.225V303H408.225V305.8H411.585V307.72H408.225V313.34C408.225 313.9 408.379 314.36 408.685 314.72C409.005 315.067 409.425 315.24 409.945 315.24C410.265 315.24 410.552 315.22 410.805 315.18V317.08C410.392 317.133 409.999 317.16 409.625 317.16C408.505 317.16 407.659 316.78 407.085 316.02C406.512 315.26 406.225 314.367 406.225 313.34Z" fill="white"/>
<rect width="55" height="55" transform="matrix(-1 0 0 1 356 282)" fill="#1C39FF"/>
<path d="M322.14 308.9H323.9C325.207 308.9 326.314 309.253 327.22 309.96C328.127 310.653 328.58 311.587 328.58 312.76C328.58 313.92 328.06 314.96 327.02 315.88C325.994 316.787 324.707 317.24 323.16 317.24C321.854 317.24 320.687 316.86 319.66 316.1C318.647 315.327 317.887 314.327 317.38 313.1H319.68C320.467 314.527 321.627 315.24 323.16 315.24C324.054 315.24 324.834 315.007 325.5 314.54C326.167 314.073 326.5 313.507 326.5 312.84C326.5 312.2 326.267 311.72 325.8 311.4C325.347 311.067 324.78 310.9 324.1 310.9H322.32C321.107 310.9 320.06 310.56 319.18 309.88C318.3 309.187 317.86 308.287 317.86 307.18C317.86 306.047 318.354 305.027 319.34 304.12C320.34 303.213 321.567 302.76 323.02 302.76C324.287 302.76 325.407 303.147 326.38 303.92C327.367 304.68 328.094 305.673 328.56 306.9H326.28C325.587 305.473 324.5 304.76 323.02 304.76C322.207 304.76 321.487 304.993 320.86 305.46C320.247 305.913 319.94 306.473 319.94 307.14C319.94 307.713 320.147 308.153 320.56 308.46C320.974 308.753 321.5 308.9 322.14 308.9ZM334.801 310.44H336.181C337.301 310.44 338.248 310.733 339.021 311.32C339.795 311.893 340.181 312.653 340.181 313.6C340.181 314.627 339.721 315.493 338.801 316.2C337.881 316.893 336.835 317.24 335.661 317.24C334.528 317.24 333.515 316.907 332.621 316.24C331.741 315.56 331.095 314.687 330.681 313.62H332.821C333.101 314.14 333.495 314.553 334.001 314.86C334.521 315.167 335.095 315.32 335.721 315.32C336.348 315.32 336.915 315.153 337.421 314.82C337.928 314.487 338.181 314.093 338.181 313.64C338.181 313.213 338.008 312.893 337.661 312.68C337.315 312.467 336.881 312.36 336.361 312.36H334.961C333.841 312.36 332.908 312.093 332.161 311.56C331.428 311.013 331.061 310.26 331.061 309.3C331.061 308.247 331.501 307.36 332.381 306.64C333.261 305.92 334.268 305.56 335.401 305.56C336.521 305.56 337.508 305.9 338.361 306.58C339.215 307.247 339.835 308.113 340.221 309.18H338.081C337.828 308.66 337.461 308.247 336.981 307.94C336.515 307.633 335.988 307.48 335.401 307.48C334.761 307.48 334.208 307.647 333.741 307.98C333.288 308.313 333.061 308.727 333.061 309.22C333.061 309.62 333.228 309.927 333.561 310.14C333.895 310.34 334.308 310.44 334.801 310.44Z" fill="white"/>
<rect width="55" height="55" transform="matrix(-1 0 0 1 281 282)" fill="#1C39FF"/>
<path d="M244.385 302H250.005C251.085 302 252.025 302.4 252.825 303.2C253.638 304 254.045 304.947 254.045 306.04C254.045 306.907 253.771 307.693 253.225 308.4C252.691 309.107 252.018 309.6 251.205 309.88L254.845 316H252.485L248.965 310.08H246.465V316H244.385V302ZM251.305 307.46C251.745 307.033 251.965 306.56 251.965 306.04C251.965 305.52 251.745 305.053 251.305 304.64C250.878 304.213 250.405 304 249.885 304H246.465V308.08H249.885C250.405 308.08 250.878 307.873 251.305 307.46ZM259.351 316H257.351V304.8H259.351V305.72C260.125 304.947 261.078 304.56 262.211 304.56C262.305 304.56 262.471 304.573 262.711 304.6V306.54C262.551 306.5 262.385 306.48 262.211 306.48C261.451 306.48 260.785 306.78 260.211 307.38C259.638 307.967 259.351 308.647 259.351 309.42V316Z" fill="white"/>
<rect width="55" height="55" transform="matrix(-1 0 0 1 206 282)" fill="#1C39FF"/>
<path d="M168.551 303.82C169.524 303.113 170.591 302.76 171.751 302.76C172.911 302.76 173.977 303.113 174.951 303.82C175.924 304.527 176.671 305.433 177.191 306.54C177.724 307.633 177.991 308.787 177.991 310C177.991 311.773 177.464 313.353 176.411 314.74L177.951 317H175.731L175.091 316.08C174.077 316.853 172.964 317.24 171.751 317.24C170.591 317.24 169.524 316.887 168.551 316.18C167.577 315.473 166.824 314.573 166.291 313.48C165.771 312.373 165.511 311.213 165.511 310C165.511 308.787 165.771 307.633 166.291 306.54C166.824 305.433 167.577 304.527 168.551 303.82ZM175.911 310C175.911 308.68 175.511 307.48 174.711 306.4C173.924 305.307 172.937 304.76 171.751 304.76C170.564 304.76 169.571 305.307 168.771 306.4C167.984 307.48 167.591 308.68 167.591 310C167.591 311.32 167.984 312.527 168.771 313.62C169.571 314.7 170.564 315.24 171.751 315.24C172.577 315.24 173.311 314.96 173.951 314.4L172.071 311.62H174.291L175.171 312.92C175.664 312.013 175.911 311.04 175.911 310ZM185.593 305.56C186.9 305.56 187.967 306.053 188.793 307.04V305.8H190.793V320.7H188.793V315.76C187.927 316.747 186.86 317.24 185.593 317.24C184.153 317.24 182.927 316.647 181.913 315.46C180.9 314.273 180.393 312.92 180.393 311.4C180.393 309.88 180.9 308.527 181.913 307.34C182.927 306.153 184.153 305.56 185.593 305.56ZM183.313 314.1C183.94 314.913 184.7 315.32 185.593 315.32C186.487 315.32 187.24 314.913 187.853 314.1C188.48 313.273 188.793 312.373 188.793 311.4C188.793 310.427 188.48 309.533 187.853 308.72C187.24 307.893 186.487 307.48 185.593 307.48C184.7 307.48 183.94 307.893 183.313 308.72C182.7 309.533 182.393 310.427 182.393 311.4C182.393 312.373 182.7 313.273 183.313 314.1Z" fill="white"/>
<rect width="55" height="55" transform="matrix(-1 0 0 1 131 282)" fill="#1C39FF"/>
<path d="M91.1699 303H97.1899C98.3233 303 99.3099 303.42 100.15 304.26C101.003 305.1 101.43 306.093 101.43 307.24C101.43 308.387 101.003 309.38 100.15 310.22C99.3099 311.06 98.3233 311.48 97.1899 311.48H93.2499V317H91.1699V303ZM98.6499 308.82C99.1166 308.367 99.3499 307.84 99.3499 307.24C99.3499 306.64 99.1166 306.12 98.6499 305.68C98.1833 305.227 97.6499 305 97.0499 305H93.2499V309.48H97.0499C97.6499 309.48 98.1833 309.26 98.6499 308.82ZM109.434 305.56C110.874 305.56 112.101 306.153 113.114 307.34C114.127 308.527 114.634 309.88 114.634 311.4C114.634 312.92 114.127 314.273 113.114 315.46C112.101 316.647 110.874 317.24 109.434 317.24C108.167 317.24 107.101 316.747 106.234 315.76V320.7H104.234V305.8H106.234V307.04C107.061 306.053 108.127 305.56 109.434 305.56ZM107.154 314.1C107.781 314.913 108.541 315.32 109.434 315.32C110.327 315.32 111.081 314.913 111.694 314.1C112.321 313.273 112.634 312.373 112.634 311.4C112.634 310.427 112.321 309.533 111.694 308.72C111.081 307.893 110.327 307.48 109.434 307.48C108.541 307.48 107.781 307.893 107.154 308.72C106.541 309.533 106.234 310.427 106.234 311.4C106.234 312.373 106.541 313.273 107.154 314.1Z" fill="white"/>
<rect width="55" height="55" transform="matrix(-1 0 0 1 881 187)" fill="#1C39FF"/>
<path d="M843.402 209.093C844.375 208.386 845.442 208.033 846.602 208.033C847.762 208.033 848.829 208.386 849.802 209.093C850.775 209.799 851.522 210.706 852.042 211.813C852.575 212.906 852.842 214.059 852.842 215.273C852.842 216.486 852.575 217.646 852.042 218.753C851.522 219.846 850.775 220.746 849.802 221.453C848.829 222.159 847.762 222.513 846.602 222.513C845.442 222.513 844.375 222.159 843.402 221.453C842.429 220.746 841.675 219.846 841.142 218.753C840.622 217.646 840.362 216.486 840.362 215.273C840.362 214.059 840.622 212.906 841.142 211.813C841.675 210.706 842.429 209.799 843.402 209.093ZM849.562 218.893C850.362 217.799 850.762 216.593 850.762 215.273C850.762 213.953 850.362 212.753 849.562 211.673C848.775 210.579 847.789 210.033 846.602 210.033C845.415 210.033 844.422 210.579 843.622 211.673C842.835 212.753 842.442 213.953 842.442 215.273C842.442 216.593 842.835 217.799 843.622 218.893C844.422 219.973 845.415 220.513 846.602 220.513C847.789 220.513 848.775 219.973 849.562 218.893ZM856.765 212.613C857.778 211.426 859.005 210.833 860.445 210.833C861.885 210.833 863.112 211.426 864.125 212.613C865.138 213.799 865.645 215.153 865.645 216.673C865.645 218.193 865.138 219.546 864.125 220.733C863.112 221.919 861.885 222.513 860.445 222.513C859.005 222.513 857.778 221.919 856.765 220.733C855.752 219.546 855.245 218.193 855.245 216.673C855.245 215.153 855.752 213.799 856.765 212.613ZM858.165 219.373C858.792 220.186 859.552 220.593 860.445 220.593C861.338 220.593 862.092 220.186 862.705 219.373C863.332 218.546 863.645 217.646 863.645 216.673C863.645 215.699 863.332 214.806 862.705 213.993C862.092 213.166 861.338 212.753 860.445 212.753C859.552 212.753 858.792 213.166 858.165 213.993C857.552 214.806 857.245 215.699 857.245 216.673C857.245 217.646 857.552 218.546 858.165 219.373Z" fill="white"/>
<rect width="55" height="55" transform="matrix(-1 0 0 1 806 187)" fill="#1C39FF"/>
<path d="M777.258 222.273H775.418L768.498 212.293V222.273H766.418V208.273H768.258L775.178 218.253V208.273H777.258V222.273ZM783.162 222.273H781.162V211.073H783.162V211.993C783.935 211.219 784.888 210.833 786.022 210.833C787.328 210.833 788.462 211.319 789.422 212.293C790.395 213.253 790.882 214.386 790.882 215.693V222.273H788.882V215.693C788.882 214.933 788.588 214.253 788.002 213.653C787.428 213.053 786.768 212.753 786.022 212.753C785.275 212.753 784.608 213.053 784.022 213.653C783.448 214.253 783.162 214.933 783.162 215.693V222.273Z" fill="white"/>
<rect width="55" height="55" transform="matrix(-1 0 0 1 731 187)" fill="#1C39FF"/>
<path d="M694.53 222H692.89L689.57 213.96V222H687.49V208H689.33L693.71 218.7L698.11 208H699.95V222H697.87V213.96L694.53 222ZM705.855 210.8V211.48C706.468 210.867 707.215 210.56 708.095 210.56C709.468 210.56 710.548 211.16 711.335 212.36C712.122 211.16 713.202 210.56 714.575 210.56C715.722 210.56 716.715 210.987 717.555 211.84C718.395 212.68 718.815 213.667 718.815 214.8V222H716.815V214.78C716.815 214.18 716.588 213.647 716.135 213.18C715.695 212.713 715.175 212.48 714.575 212.48C713.975 212.48 713.448 212.713 712.995 213.18C712.555 213.647 712.335 214.18 712.335 214.78V222H710.335V214.78C710.335 214.18 710.108 213.647 709.655 213.18C709.215 212.713 708.695 212.48 708.095 212.48C707.495 212.48 706.968 212.713 706.515 213.18C706.075 213.647 705.855 214.18 705.855 214.78V222H703.855V210.8H705.855Z" fill="white"/>
<rect width="55" height="55" transform="matrix(-1 0 0 1 656 187)" fill="#1C39FF"/>
<path d="M623.213 220H630.273V222H621.133V208H623.213V220ZM634.966 207.1V222H632.966V207.1H634.966Z" fill="white"/>
<rect width="55" height="55" transform="matrix(-1 0 0 1 581 187)" fill="#1C39FF"/>
<path d="M550.444 208H553.384L547.244 214.1L553.584 222H550.944L545.784 215.54L544.404 216.92V222H542.324V208H544.404V214.02L550.444 208ZM555.877 207.1H557.877V215.4L562.557 210.8H565.297L560.537 215.5L565.377 222H562.877L559.117 216.92L557.877 218.14V222H555.877V207.1Z" fill="white"/>
<rect width="55" height="55" transform="matrix(-1 0 0 1 506 187)" fill="#1C39FF"/>
<path d="M476.365 208V218.44C476.365 219.48 476.052 220.373 475.425 221.12C474.799 221.867 473.872 222.24 472.645 222.24C472.312 222.24 471.972 222.22 471.625 222.18V220.2C471.919 220.227 472.159 220.24 472.345 220.24C472.945 220.24 473.419 220.093 473.765 219.8C474.112 219.493 474.285 219.067 474.285 218.52V208H476.365ZM479.954 209.34V207.1H482.194V209.34H479.954ZM482.074 210.8V222.48C482.074 223.427 481.78 224.24 481.194 224.92C480.62 225.6 479.774 225.94 478.654 225.94C478.347 225.94 478.034 225.92 477.714 225.88V223.98C478.007 224.007 478.227 224.02 478.374 224.02C478.907 224.02 479.32 223.887 479.614 223.62C479.92 223.367 480.074 222.987 480.074 222.48V210.8H482.074Z" fill="white"/>
<rect width="55" height="55" transform="matrix(-1 0 0 1 431 187)" fill="#1C39FF"/>
<path d="M401.143 222H399.063V208H401.143V222ZM407.037 222H405.037V210.8H407.037V222ZM404.917 209.34V207.1H407.157V209.34H404.917Z" fill="white"/>
<rect width="55" height="55" transform="matrix(-1 0 0 1 356 187)" fill="#1C39FF"/>
<path d="M327.258 222H325.178V215.8H318.498V222H316.418V208H318.498V213.8H325.178V208H327.258V222ZM333.162 222H331.162V207.1H333.162V211.72C333.935 210.947 334.888 210.56 336.022 210.56C337.328 210.56 338.462 211.047 339.422 212.02C340.395 212.98 340.882 214.113 340.882 215.42V222H338.882V215.42C338.882 214.66 338.588 213.98 338.002 213.38C337.428 212.78 336.768 212.48 336.022 212.48C335.275 212.48 334.608 212.78 334.022 213.38C333.448 213.98 333.162 214.66 333.162 215.42V222Z" fill="white"/>
<rect width="55" height="55" transform="matrix(-1 0 0 1 281 187)" fill="#1C39FF"/>
<path d="M247.475 207.76C248.702 207.76 249.808 208.147 250.795 208.92C251.782 209.68 252.542 210.673 253.075 211.9H250.775C249.935 210.473 248.835 209.76 247.475 209.76C246.288 209.76 245.295 210.307 244.495 211.4C243.708 212.48 243.315 213.68 243.315 215C243.315 216.32 243.708 217.527 244.495 218.62C245.295 219.7 246.288 220.24 247.475 220.24C248.355 220.24 249.122 219.887 249.775 219.18C250.428 218.46 250.855 217.62 251.055 216.66H247.395V214.66H253.275V215.28C253.275 217.133 252.695 218.76 251.535 220.16C250.388 221.547 249.035 222.24 247.475 222.24C246.315 222.24 245.248 221.887 244.275 221.18C243.302 220.473 242.548 219.573 242.015 218.48C241.495 217.373 241.235 216.213 241.235 215C241.235 213.787 241.495 212.633 242.015 211.54C242.548 210.433 243.302 209.527 244.275 208.82C245.248 208.113 246.315 207.76 247.475 207.76ZM264.069 210.8H266.069V220.9C266.069 222.247 265.589 223.42 264.629 224.42C263.682 225.433 262.442 225.94 260.909 225.94C259.842 225.94 258.862 225.593 257.969 224.9C257.075 224.22 256.449 223.367 256.089 222.34H258.229C258.509 222.847 258.882 223.253 259.349 223.56C259.829 223.867 260.349 224.02 260.909 224.02C261.922 224.02 262.702 223.707 263.249 223.08C263.795 222.467 264.069 221.74 264.069 220.9V220.3C263.255 221.247 262.189 221.72 260.869 221.72C259.442 221.72 258.215 221.16 257.189 220.04C256.175 218.907 255.669 217.607 255.669 216.14C255.669 214.673 256.175 213.38 257.189 212.26C258.215 211.127 259.442 210.56 260.869 210.56C262.175 210.56 263.242 211.04 264.069 212V210.8ZM258.609 218.68C259.235 219.427 259.989 219.8 260.869 219.8C261.749 219.8 262.502 219.427 263.129 218.68C263.755 217.92 264.069 217.073 264.069 216.14C264.069 215.207 263.755 214.367 263.129 213.62C262.502 212.86 261.749 212.48 260.869 212.48C259.989 212.48 259.235 212.86 258.609 213.62C257.982 214.367 257.669 215.207 257.669 216.14C257.669 217.073 257.982 217.92 258.609 218.68Z" fill="white"/>
<path d="M821 77H361V162H821V77Z" fill="white"/>
<rect width="55" height="55" transform="matrix(-1 0 0 1 806 92)" fill="#1C39FF"/>
<path d="M778.955 115H771.455V118.8H777.635V120.8H771.455V127H769.375V113H778.955V115ZM782.815 115.8V115.4C782.815 114.453 783.102 113.64 783.675 112.96C784.262 112.28 785.115 111.94 786.235 111.94C786.542 111.94 786.855 111.96 787.175 112V113.9C786.882 113.873 786.662 113.86 786.515 113.86C785.982 113.86 785.562 113.993 785.255 114.26C784.962 114.513 784.815 114.893 784.815 115.4V115.8H787.815V117.72H784.815V127H782.815V117.72H780.455V115.8H782.815Z" fill="white"/>
<rect width="55" height="55" transform="matrix(-1 0 0 1 731 92)" fill="#1C39FF"/>
<path d="M701.943 115H694.443V118.8H700.623V120.8H694.443V125H701.943V127H692.363V113H701.943V115ZM709.244 125.32C710.324 125.32 711.19 124.753 711.844 123.62H714.024C713.61 124.673 712.977 125.54 712.124 126.22C711.27 126.9 710.31 127.24 709.244 127.24C707.804 127.24 706.577 126.647 705.564 125.46C704.55 124.273 704.044 122.92 704.044 121.4C704.044 119.88 704.55 118.527 705.564 117.34C706.577 116.153 707.804 115.56 709.244 115.56C710.684 115.56 711.91 116.153 712.924 117.34C713.937 118.527 714.444 119.88 714.444 121.4V122.06H706.084C706.217 122.94 706.577 123.707 707.164 124.36C707.75 125 708.444 125.32 709.244 125.32ZM711.124 118.28C710.59 117.747 709.964 117.48 709.244 117.48C708.524 117.48 707.877 117.753 707.304 118.3C706.744 118.833 706.37 119.487 706.184 120.26H712.284C712.057 119.473 711.67 118.813 711.124 118.28Z" fill="white"/>
<rect width="55" height="55" transform="matrix(-1 0 0 1 656 92)" fill="#1C39FF"/>
<path d="M626.566 115.12C627.726 116.52 628.306 118.147 628.306 120C628.306 121.853 627.726 123.487 626.566 124.9C625.406 126.3 623.973 127 622.266 127H617.006V113H622.266C623.973 113 625.406 113.707 626.566 115.12ZM625.106 123.46C625.853 122.433 626.226 121.28 626.226 120C626.226 118.72 625.853 117.567 625.106 116.54C624.359 115.513 623.413 115 622.266 115H619.086V125H622.266C623.413 125 624.359 124.487 625.106 123.46ZM635.898 127.24C634.458 127.24 633.231 126.647 632.218 125.46C631.205 124.273 630.698 122.92 630.698 121.4C630.698 119.88 631.205 118.527 632.218 117.34C633.231 116.153 634.458 115.56 635.898 115.56C637.165 115.56 638.231 116.053 639.098 117.04V112.1H641.098V127H639.098V125.76C638.271 126.747 637.205 127.24 635.898 127.24ZM638.158 118.72C637.545 117.893 636.791 117.48 635.898 117.48C635.005 117.48 634.245 117.893 633.618 118.72C633.005 119.533 632.698 120.427 632.698 121.4C632.698 122.373 633.005 123.273 633.618 124.1C634.245 124.913 635.005 125.32 635.898 125.32C636.791 125.32 637.545 124.913 638.158 124.1C638.785 123.273 639.098 122.373 639.098 121.4C639.098 120.427 638.785 119.533 638.158 118.72Z" fill="white"/>
<rect width="55" height="55" transform="matrix(-1 0 0 1 581 92)" fill="#1C39FF"/>
<path d="M547.922 112.76C549.149 112.76 550.256 113.147 551.242 113.92C552.229 114.68 552.989 115.673 553.522 116.9H551.222C550.382 115.473 549.282 114.76 547.922 114.76C546.736 114.76 545.742 115.307 544.942 116.4C544.156 117.48 543.762 118.68 543.762 120C543.762 121.32 544.156 122.527 544.942 123.62C545.742 124.7 546.736 125.24 547.922 125.24C549.282 125.24 550.382 124.527 551.222 123.1H553.522C552.989 124.327 552.229 125.327 551.242 126.1C550.256 126.86 549.149 127.24 547.922 127.24C546.762 127.24 545.696 126.887 544.722 126.18C543.749 125.473 542.996 124.573 542.462 123.48C541.942 122.373 541.682 121.213 541.682 120C541.682 118.787 541.942 117.633 542.462 116.54C542.996 115.433 543.749 114.527 544.722 113.82C545.696 113.113 546.762 112.76 547.922 112.76ZM560.73 125.32C561.81 125.32 562.677 124.753 563.33 123.62H565.51C565.097 124.673 564.463 125.54 563.61 126.22C562.757 126.9 561.797 127.24 560.73 127.24C559.29 127.24 558.063 126.647 557.05 125.46C556.037 124.273 555.53 122.92 555.53 121.4C555.53 119.88 556.037 118.527 557.05 117.34C558.063 116.153 559.29 115.56 560.73 115.56C561.797 115.56 562.757 115.9 563.61 116.58C564.463 117.26 565.097 118.127 565.51 119.18H563.33C562.677 118.047 561.81 117.48 560.73 117.48C559.837 117.48 559.077 117.893 558.45 118.72C557.837 119.533 557.53 120.427 557.53 121.4C557.53 122.373 557.837 123.273 558.45 124.1C559.077 124.913 559.837 125.32 560.73 125.32Z" fill="white"/>
<rect width="55" height="55" transform="matrix(-1 0 0 1 506 92)" fill="#1C39FF"/>
<path d="M466.475 113H472.535C473.575 113 474.481 113.393 475.255 114.18C476.041 114.953 476.435 115.86 476.435 116.9C476.435 117.953 476.048 118.867 475.275 119.64C475.795 120.04 476.201 120.527 476.495 121.1C476.788 121.673 476.935 122.273 476.935 122.9C476.935 123.993 476.521 124.953 475.695 125.78C474.881 126.593 473.928 127 472.835 127H466.475V113ZM474.195 124.38C474.635 123.953 474.855 123.46 474.855 122.9C474.855 122.34 474.635 121.853 474.195 121.44C473.755 121.013 473.255 120.8 472.695 120.8H468.555V125H472.695C473.255 125 473.755 124.793 474.195 124.38ZM473.755 118.22C474.155 117.833 474.355 117.393 474.355 116.9C474.355 116.407 474.155 115.967 473.755 115.58C473.355 115.193 472.908 115 472.415 115H468.555V118.8H472.415C472.908 118.8 473.355 118.607 473.755 118.22ZM485.129 127.24C483.823 127.24 482.756 126.747 481.929 125.76V127H479.929V112.1H481.929V117.04C482.796 116.053 483.863 115.56 485.129 115.56C486.569 115.56 487.796 116.153 488.809 117.34C489.823 118.527 490.329 119.88 490.329 121.4C490.329 122.92 489.823 124.273 488.809 125.46C487.796 126.647 486.569 127.24 485.129 127.24ZM487.389 118.72C486.776 117.893 486.023 117.48 485.129 117.48C484.236 117.48 483.476 117.893 482.849 118.72C482.236 119.533 481.929 120.427 481.929 121.4C481.929 122.373 482.236 123.273 482.849 124.1C483.476 124.913 484.236 125.32 485.129 125.32C486.023 125.32 486.776 124.913 487.389 124.1C488.016 123.273 488.329 122.373 488.329 121.4C488.329 120.427 488.016 119.533 487.389 118.72Z" fill="white"/>
<rect width="55" height="55" transform="matrix(-1 0 0 1 431 92)" fill="#1C39FF"/>
<path d="M400.844 127L399.524 123.4H394.164L392.844 127H390.744L395.924 113H397.764L402.944 127H400.844ZM396.844 116.18L394.904 121.4H398.784L396.844 116.18ZM404.692 123.72C404.692 122.813 405.018 122.04 405.672 121.4C406.325 120.76 407.112 120.44 408.032 120.44H410.272C410.698 120.44 411.058 120.36 411.352 120.2C411.645 120.04 411.792 119.793 411.792 119.46C411.792 118.913 411.552 118.447 411.072 118.06C410.592 117.673 410.038 117.48 409.412 117.48C408.332 117.48 407.465 118.047 406.812 119.18H404.652C405.038 118.14 405.658 117.28 406.512 116.6C407.378 115.907 408.338 115.56 409.392 115.56C410.698 115.56 411.765 116 412.592 116.88C413.432 117.76 413.852 118.827 413.852 120.08V127H411.852V126.16C411.252 126.88 410.325 127.24 409.072 127.24C407.818 127.24 406.772 126.92 405.932 126.28C405.105 125.627 404.692 124.773 404.692 123.72ZM406.692 123.72C406.692 124.187 406.918 124.573 407.372 124.88C407.825 125.173 408.392 125.32 409.072 125.32C409.872 125.32 410.532 125.113 411.052 124.7C411.585 124.273 411.852 123.727 411.852 123.06V121.5C411.532 122.073 410.938 122.36 410.072 122.36H408.032C407.658 122.36 407.338 122.493 407.072 122.76C406.818 123.013 406.692 123.333 406.692 123.72Z" fill="white"/>
<path d="M414 67H788.904L768.904 0H434L414 67Z" fill="white"/>
<path d="M551.04 29.02H546.16V36.42C546.16 37.1667 546.067 37.8667 545.88 38.52C545.693 39.1733 545.333 39.76 544.8 40.28C544.267 40.8 543.587 41.06 542.76 41.06C542.307 41.06 541.987 41.02 541.8 40.94V38.98C541.92 39.0333 542.113 39.06 542.38 39.06C542.9 39.06 543.313 38.8267 543.62 38.36C543.927 37.88 544.08 37.2333 544.08 36.42V27H553.12V41H551.04V29.02ZM556.461 37.72C556.461 36.8133 556.788 36.04 557.441 35.4C558.094 34.76 558.881 34.44 559.801 34.44H562.041C562.468 34.44 562.828 34.36 563.121 34.2C563.414 34.04 563.561 33.7933 563.561 33.46C563.561 32.9133 563.321 32.4467 562.841 32.06C562.361 31.6733 561.808 31.48 561.181 31.48C560.101 31.48 559.234 32.0467 558.581 33.18H556.421C556.808 32.14 557.428 31.28 558.281 30.6C559.148 29.9067 560.108 29.56 561.161 29.56C562.468 29.56 563.534 30 564.361 30.88C565.201 31.76 565.621 32.8267 565.621 34.08V41H563.621V40.16C563.021 40.88 562.094 41.24 560.841 41.24C559.588 41.24 558.541 40.92 557.701 40.28C556.874 39.6267 556.461 38.7733 556.461 37.72ZM558.461 37.72C558.461 38.1867 558.688 38.5733 559.141 38.88C559.594 39.1733 560.161 39.32 560.841 39.32C561.641 39.32 562.301 39.1133 562.821 38.7C563.354 38.2733 563.621 37.7267 563.621 37.06V35.5C563.301 36.0733 562.708 36.36 561.841 36.36H559.801C559.428 36.36 559.108 36.4933 558.841 36.76C558.588 37.0133 558.461 37.3333 558.461 37.72ZM577.05 29.8V31.72H573.29V41H571.29V31.72H567.53V29.8H577.05ZM579.248 29.8H581.248V37.32L586.608 29.8H588.368V41H586.368V33.48L581.008 41H579.248V29.8ZM592.177 29.8H594.177V34.28H599.297V29.8H601.297V41H599.297V36.2H594.177V41H592.177V29.8ZM605.107 29.8H607.107V37.32L612.467 29.8H614.227V41H612.227V33.48L606.867 41H605.107V29.8ZM618.037 41V29.8H620.037V39.08H625.157V29.8H627.157V39.08H628.817V43.84H626.817V41H618.037ZM630.953 37.72C630.953 36.8133 631.28 36.04 631.933 35.4C632.587 34.76 633.373 34.44 634.293 34.44H636.533C636.96 34.44 637.32 34.36 637.613 34.2C637.907 34.04 638.053 33.7933 638.053 33.46C638.053 32.9133 637.813 32.4467 637.333 32.06C636.853 31.6733 636.3 31.48 635.673 31.48C634.593 31.48 633.727 32.0467 633.073 33.18H630.913C631.3 32.14 631.92 31.28 632.773 30.6C633.64 29.9067 634.6 29.56 635.653 29.56C636.96 29.56 638.027 30 638.853 30.88C639.693 31.76 640.113 32.8267 640.113 34.08V41H638.113V40.16C637.513 40.88 636.587 41.24 635.333 41.24C634.08 41.24 633.033 40.92 632.193 40.28C631.367 39.6267 630.953 38.7733 630.953 37.72ZM632.953 37.72C632.953 38.1867 633.18 38.5733 633.633 38.88C634.087 39.1733 634.653 39.32 635.333 39.32C636.133 39.32 636.793 39.1133 637.313 38.7C637.847 38.2733 638.113 37.7267 638.113 37.06V35.5C637.793 36.0733 637.2 36.36 636.333 36.36H634.293C633.92 36.36 633.6 36.4933 633.333 36.76C633.08 37.0133 632.953 37.3333 632.953 37.72Z" fill="#1C39FF"/>
<path d="M920 362H0V387H920V362Z" fill="#FED700"/>
</svg>
