<svg width="122" height="137" viewBox="0 0 122 137" fill="none" xmlns="http://www.w3.org/2000/svg">
<path d="M60.6732 136.8C43.8718 136.8 29.5594 129.877 17.7361 116.032C5.91286 102.186 0.00123164 86.3958 0.00123164 68.6609C0.00123164 50.926 5.91286 35.1357 17.7361 21.2901C29.5594 7.44442 43.8718 0.521591 60.6732 0.521591C75.4523 0.521591 87.8979 6.27765 98.0099 17.7898V3.32184H121.345V134H98.0099V119.532C88.3646 131.044 75.919 136.8 60.6732 136.8ZM87.0422 37.3915C79.886 27.7462 71.0964 22.9236 60.6732 22.9236C50.2501 22.9236 41.3827 27.7462 34.0709 37.3915C26.9147 46.8812 23.3366 57.3044 23.3366 68.6609C23.3366 80.0175 26.9147 90.5184 34.0709 100.164C41.3827 109.653 50.2501 114.398 60.6732 114.398C71.0964 114.398 79.886 109.653 87.0422 100.164C94.354 90.5184 98.0099 80.0175 98.0099 68.6609C98.0099 57.3044 94.354 46.8812 87.0422 37.3915Z" fill="white"/>
</svg>
