<svg width="1440" height="42" viewBox="0 0 1440 42" fill="none" xmlns="http://www.w3.org/2000/svg">
<path d="M0 5C65.5044 5 65.5044 37 130.984 37C196.489 37 196.489 5 261.993 5C327.498 5 327.498 37 393.002 37C458.507 37 458.507 5 523.987 5C589.491 5 589.491 37 654.996 37C720.5 37 720.5 5 785.98 5C851.484 5 851.484 37 916.964 37C982.469 37 982.469 5 1047.97 5C1113.48 5 1113.48 37 1178.98 37C1244.49 37 1244.49 5 1309.99 5C1375.5 5 1375.5 37 1441 37" stroke="white" stroke-width="10" stroke-miterlimit="10"/>
</svg>
