<svg width="1440" height="446" viewBox="0 0 1440 446" fill="none" xmlns="http://www.w3.org/2000/svg">
<path d="M0 0C65.5044 0 65.5044 31.9095 130.984 31.9095C196.489 31.9095 196.489 0 261.993 0C327.498 0 327.498 31.9095 393.002 31.9095C458.507 31.9095 458.507 0 523.987 0C589.491 0 589.491 31.9095 654.995 31.9095C720.5 31.9095 720.5 0 785.98 0C851.484 0 851.484 31.9095 916.964 31.9095C982.469 31.9095 982.469 0 1047.97 0C1113.48 0 1113.48 31.9095 1178.98 31.9095C1244.49 31.9095 1244.49 0 1309.99 0C1375.5 0 1375.5 31.9095 1441 31.9095V446H0V0Z" fill="white"/>
</svg>
